<?xml version="1.0" standalone="no"?>
<!DOCTYPE svg PUBLIC "-//W3C//DTD SVG 1.1//EN" "http://www.w3.org/Graphics/SVG/1.1/DTD/svg11.dtd" >
<svg xmlns="http://www.w3.org/2000/svg" xmlns:xlink="http://www.w3.org/1999/xlink" version="1.1">
<metadata></metadata>
<defs>
<font id="_handwritingfontregular" horiz-adv-x="704" >
<font-face units-per-em="2048" ascent="1638" descent="-410" />
<missing-glyph horiz-adv-x="471" />
<glyph horiz-adv-x="471" />
<glyph horiz-adv-x="471" />
<glyph horiz-adv-x="682" />
<glyph unicode="&#xd;" horiz-adv-x="681" />
<glyph unicode=" "  horiz-adv-x="471" />
<glyph unicode="&#x09;" horiz-adv-x="471" />
<glyph unicode="&#xa0;" horiz-adv-x="471" />
<glyph unicode="!" horiz-adv-x="309" d="M66 688q0 63 5 185t5 178q0 49 -2 73q-4 86 -4 207v131h166l4 -76q4 -94 4 -286q0 -338 -6 -404q-6 -104 -7 -108v-45q-29 2 -82 2t-81 2zM74 150v286h164v-289l-82 3h-82z" />
<glyph unicode="&#x22;" horiz-adv-x="628" d="M70 1413h84l82 -2l4 -29q4 -53 4 -401v-80h-162q-4 43 -8 275zM377 1337q0 91 2 93q4 4 80 4q78 0 84 -7q14 -18 14 -358v-147h-160l-4 30q-2 12 -6 115q-4 84 -6 86q-4 4 -4 184z" />
<glyph unicode="#" horiz-adv-x="1300" d="M74 653v140l129 -2q121 0 166 4l39 4v18q0 8 1 14.5t3 14.5t2 12h-76q-76 0 -80 4q-6 6 -22 6h-21v277l66 4q35 2 106 2h41l2 61q0 14 7 101.5t7 130.5q0 55 2 61q2 12 84 13q80 0 80 -9v-94q0 -203 -2 -221l-4 -37h164l2 154v153h168l2 -153v-152l68 -4q20 -2 102 -10 l37 -6v-279h-82q-78 0 -94 4q-10 4 -12.5 2t-2.5 -16v-19h48q49 0 49 6.5t65 6.5q92 0 101 -8q6 -6 6 -146l-2 -139l-125 -2h-123l4 -41q2 -20 2 -264v-99q0 -6 -27 -6h-55h-82l-6 25q-4 16 -8 194q0 41 -1 84t-3 66v22h-8q-109 0 -185 -10l-33 -4l2 -149q0 -152 -4 -174 h-82q-82 0 -83 8q-2 4 -3 157v150h-157q-160 0 -164 2q-8 2 -8 143zM586 811l55 4q10 0 47 2t51 4l45 2v49h-96q-96 0 -98 -2q-4 -4 -4 -32v-27z" />
<glyph unicode="$" horiz-adv-x="1085" d="M74 205v141l2 139l82 2q82 0 84 -4q6 -8 53 -8q86 0 172 21q18 4 21.5 8t7.5 20q4 25 4 72v49q-31 2 -92.5 2t-92.5 2l-34 17q-47 25 -76 73q-23 35 -28 79t-5 181q0 141 7 186.5t36 104.5q45 92 121 123q37 16 90 19l55 4l4 88q0 23 2 45t3.5 34.5t1.5 14.5q4 6 81 6 l82 -2v-94l2 -94l35 -4q119 -8 152 -29v-137q0 -141 -8 -146q-18 -6 -86 -6q-78 0 -78 8q0 6 -8 10q-4 2 -5.5 -5t0.5 -42q2 -27 3 -96v-45l83 -4q106 -2 173 -33q61 -29 79 -69q12 -23 13 -197v-172l-17 -31q-29 -53 -84 -96q-63 -51 -188 -94q-49 -14 -57 -23 q-4 -2 -9 -71l-4 -68h-78h-26q-43 0 -52.5 7t-9.5 42v14v46h-192h-39q-154 0 -180 12zM367 1006l14 -19q37 -47 86 -51l22 -2v74q0 70 -4 98l-4 27l-22 -15q-49 -31 -78 -86zM664 610q0 -43 2 -43q6 0 48 26t44 32q0 8 -31 17t-45 9h-18v-41z" />
<glyph unicode="%" horiz-adv-x="1435" d="M68 987q0 229 14 279q33 120 111 149q16 6 137 6q119 0 143 -12q25 -14 27 -23q0 -10 16 -26q18 -18 29 -39q18 -37 22 -76t4 -174q0 -170 -10 -213q-18 -80 -63 -137t-99 -72q-20 -6 -88 -6q-113 0 -133 10q-76 43 -104 205q-6 27 -6 129zM254 1030l12 -24 q10 -23 21 -39q8 -12 22 -2q35 20 60 75l8 21q-27 33 -39 33q-14 0 -14 14q0 10 -5 10q-6 0 -23 -19.5t-28 -39.5zM338 -6v278l29 58q37 80 103.5 220t113.5 243q139 305 354 680l31 51h80l77 -2l2 -136v-137l-20 -35q-106 -174 -242 -444q-106 -199 -106 -217 q-57 -123 -94 -203q-99 -203 -99 -213q0 -2 -23.5 -50t-23.5 -52t-12 -25l-14 -16h-156zM870 580q0 55 11 106q43 170 141 209q27 10 137 10q106 0 114.5 -12t8.5 -19q0 -12 21 -32q31 -35 49 -97q10 -37 10 -258q0 -96 -4 -133q-10 -66 -53 -116t-103 -64q-41 -8 -123 -8 q-80 0 -116 8q-49 14 -76 72l-15 28v185q0 29 -1 69.5t-1 51.5zM1069 489q0 -6 8 -14q2 -2 8 -2q21 0 58 39q20 20 20 29q0 4 -22 26l-17 15l-16 -21q-39 -51 -39 -72z" />
<glyph unicode="&#x26;" horiz-adv-x="528" d="M72 709q0 147 12 172q12 27 12 82q0 57 10 77q25 51 84 80q29 12 72 13h47h90v-142v-125v-24q-2 -12 -37 -13q-53 0 -53 -20q0 -8 10.5 -9t61.5 -1h72v-277q-14 -4 -44 -16t-44 -17h-109q-88 0 -111.5 4.5t-46.5 24.5q-20 20 -22 31q-4 16 -4 160zM209 295q0 139 2 143 q2 6 82 6l80 -2q0 -49 2 -143t2 -143h-84l-82 2zM219 1329q0 138 8 146q10 10 88 10h80v-144v-88q0 -55 -8 -57q-12 -4 -88 -4h-78z" />
<glyph unicode="'" horiz-adv-x="366" d="M70 895v86q0 193 8 211q12 29 30.5 117t18.5 121q0 28 2 30t86 2h80v-151q0 -121 -3 -160t-24 -131l-14 -57q0 -10 -12 -39l-11 -29h-161z" />
<glyph unicode="(" horiz-adv-x="716" d="M70 795q0 174 8 256q37 283 209 495q30 39 63 68l27 24h170v-139q0 -141 -10 -143q-25 -6 -97 -96q-133 -168 -186 -402q-10 -47 -10 -63.5t16 -85.5q70 -272 201 -359q49 -31 121 -39l53 -4q0 -47 2 -141t2 -141l-111 2q-145 2 -200 28q-96 45 -164 188.5t-86 295.5 q-8 82 -8 256z" />
<glyph unicode=")" horiz-adv-x="626" d="M76 172v141h12q14 0 56 15.5t59 27.5q137 94 176 426q6 43 6 78q0 88 -39 205q-57 176 -188 276l-27 21v141q0 144 6 146h6q4 0 12.5 1t18.5 1h23.5h25.5q76 0 78 -11l4 -12q190 -133 240 -438q10 -63 10 -322q0 -266 -8 -329q-29 -238 -98 -363q-18 -33 -55.5 -68.5 t-61.5 -46.5q-55 -25 -72.5 -27.5t-89.5 -2.5h-92z" />
<glyph unicode="*" horiz-adv-x="942" d="M70 963v288h63q59 0 60 6v3l-3 2q-4 6 -4 145l2 135l80 2h78l45 -59q10 -14 23.5 -29.5t20.5 -25t7 -11.5h2q6 0 34 35t55.5 72t29.5 39q10 10 90 10l78 -2v-297h70l67 -2v-285l-73 -2q-82 -4 -88 -4h-17q2 -49 2 -147.5t2 -147.5h-159l-13 29q-4 8 -19.5 39.5 t-21.5 48.5q-27 57 -26 61q0 8 -6 8q-10 0 -50.5 -78.5t-46.5 -97.5l-8 -20h-80l-80 2q0 47 -2 141t-2 142h-110z" />
<glyph unicode="+" horiz-adv-x="1048" d="M72 625v284q23 6 135 6h61h166l-2 146v41q0 113 6 139l82 -2h82v-328h25q8 0 188 -4l162 -4v-278l-191 -2q-180 -4 -180 -9v-4q2 -2 3 -11t2 -22.5t2 -41t1 -62.5q0 -137 -6 -143q-8 -8 -94 -8q-59 0 -68 6q-6 4 -8 155l-2 150q-61 -2 -182 -4t-182 -4z" />
<glyph unicode="," horiz-adv-x="434" d="M74 90l12 21q47 75 102 233l15 39h159v-145l-2 -146l-36 -92q-18 -47 -62 -139l-24 -47l-82 -2h-82v278z" />
<glyph unicode="-" d="M70 817v139h227q231 0 281 -6l55 -6v-285l-105 5q-57 2 -274 2q-168 0 -176 6q-8 8 -8 145z" />
<glyph unicode="." horiz-adv-x="305" d="M70 84v143q0 144 4 148q2 2 82 2h77v-291h-81z" />
<glyph unicode="/" horiz-adv-x="790" d="M74 250v139l37 66q113 209 264 651q69 197 139 377l37 92h80l80 -2l2 -139q0 -80 -1 -110t-4 -41t-14.5 -32.5t-21.5 -54.5q-55 -141 -144 -391q-125 -362 -225 -561q-47 -90 -47 -107q0 -12 -10 -18q-10 -8 -88 -8l-82 2z" />
<glyph unicode="0" horiz-adv-x="1007" d="M70 559v246q0 240 10 291q31 147 116 273t173 157q27 8 131 8q121 0 121 -12q0 -6 41 -9q102 -8 173.5 -99t94.5 -247q6 -49 6 -262q0 -266 -25 -360q-72 -281 -286 -357q-35 -12 -158 -12q-102 0 -132 5t-67 28q-129 84 -184 299zM244 809q0 -80 66.5 -190.5 t133.5 -143.5l25 -12l47 24q176 86 236 340q12 59 12 78q0 14 -10 62q-33 127 -101 194q-34 35 -59 47q-31 12 -74 13h-51l-27 -25q-74 -66 -136 -187.5t-62 -199.5z" />
<glyph unicode="1" horiz-adv-x="315" d="M66 1378q0 113 4 117q2 2 82 2h79l2 -125q4 -172 11 -280q2 -55 2 -324q0 -575 -6 -598q-2 -8 -12.5 -9t-71.5 -1h-80q-6 25 -6 82q0 12 1 44.5t1 53.5q2 90 4 187.5t3 152.5t1 94q0 80 -6 215q-8 254 -8 389z" />
<glyph unicode="2" horiz-adv-x="964" d="M70 147v279h14q16 0 16 14q0 37 170 158q94 68 211 197q119 137 193 276l16 33l-10 20q-10 20 -39 49t-49 39q-39 20 -70 21q-8 0 -33 -4q-170 -31 -235 -107q-12 -12 -92 -12h-82v274l22 21q83 82 273 111q23 4 155 4q129 0 146 -4q31 -4 67 -23q68 -31 111 -117 q31 -66 31 -202v-87q-2 -150 -5 -178t-30 -84q-88 -184 -262 -366q-4 -6 -10.5 -12.5l-10.5 -10.5l-7 -7t-3 -5l-2 -2q0 -4 170 -4h168v-279l-23 -4q-33 -4 -129 -4q-147 0 -299 8q-119 4 -172 4h-61q-16 0 -41 -1t-33 -1q-45 0 -65 6z" />
<glyph unicode="3" horiz-adv-x="1001" d="M74 338v145h84q84 0 92 -8q6 -8 57 -8q18 0 77.5 -5t86.5 -5q20 0 41 4q102 23 166 92q35 39 35 43q0 2 -35 41q-90 98 -223 111q-6 0 -32 2t-34 4l-29 2v293h33q31 0 56 8q16 6 95 49t83 47l-4 2q-2 2 -5 2q-2 0 -13 6t-17 8q-51 23 -107 35q-29 8 -57 0 q-70 -16 -117 -57l-28 -25h-80l-80 2l-2 148v147l26 23q47 37 123 57q43 10 182.5 10t178.5 -8q92 -18 177 -62t111 -87l17 -25v-162q0 -158 -14 -186q-6 -16 -33 -47l-21 -21l23 -45q18 -37 28 -77q4 -29 5 -136v-86l-2 -188l-21 -43q-18 -39 -59 -80q-55 -55 -103 -74 q-66 -27 -198 -26q-12 0 -43 1t-50 1q-319 6 -342 12q-20 4 -24 25.5t-4 140.5z" />
<glyph unicode="4" horiz-adv-x="1048" d="M72 649q0 143 2 150q8 31 141 211q223 301 266 374q6 12 25.5 40t28 44.5t12.5 36.5h164q-2 -115 -2 -343t-2 -343h20q10 0 133 4l113 4v-141l-2 -141l-23 -2q-14 0 -104 -8.5t-107 -8.5l-30 -2l-2 -110q-2 -82 -11.5 -176.5t-15.5 -104.5q-6 -6 -82 -6h-78v139 q0 137 12 254q-35 0 -157.5 -5t-173.5 -5h-125zM430 803q0 -2 23 -2q82 0 88 6v12v66v76l-15 -21q-2 -4 -55 -80q-25 -37 -29 -39q-12 -12 -12 -18z" />
<glyph unicode="5" horiz-adv-x="1036" d="M74 178v283l82 -2q80 0 135 -10q53 -8 57 -9q16 0 49 6q92 14 192.5 58.5t147.5 93.5l21 23l-21 38q-82 152 -250 152q-27 0 -41 -2q-76 -10 -84 -18q-6 -6 -86 -7l-77 2l-4 246q-2 135 -2 340v94l22 2q12 2 342 2h320q0 -45 2 -138t2 -140l-176 -4q-96 -2 -259 -2h-84 v-92l84 2q37 2 101 2q145 0 220 -34t130 -130q39 -70 51.5 -134.5t12.5 -209.5q0 -172 -21 -213q-29 -53 -104 -105q-25 -16 -66 -35.5t-47 -19.5q-4 0 -16 -8q-39 -20 -134 -41q-53 -10 -206 -12h-82q-96 0 -179 16z" />
<glyph unicode="6" horiz-adv-x="1044" d="M70 805v76q0 139 4 174t28 96q33 84 110 162t163 114q47 21 121 35q8 2 84 2q162 0 198 -6q41 -4 43 -16v-142l-2 -131l-78 -2q-80 0 -84 4.5t-20 4.5q-27 0 -66 -13q-102 -35 -180 -106q-23 -18 -22 -21q0 -2 32 17l29 14h123q125 0 166 -14q160 -57 213 -121 q14 -14 26 -43q12 -25 12.5 -207t-9.5 -217q-18 -61 -78 -123q-80 -82 -197 -121q-78 -27 -221 -26q-109 0 -148 12q-10 2 -21 8t-17.5 9t-8.5 1h-2q-20 0 -69 49q-76 74 -117 242q-12 57 -12 289zM338 571l29 -24q72 -61 108 -62q25 0 86.5 27t104.5 55q20 14 58 52t38 45 q0 12 -49.5 41.5t-106.5 52.5l-49 16q-14 -4 -76 -49q-80 -59 -123 -125z" />
<glyph unicode="7" horiz-adv-x="1021" d="M74 1217v280h14q8 0 74 4q49 4 342 4q285 0 313 -4q113 -6 117 -20q4 -10 8 -10.5t4 -104.5q0 -174 -6 -176q-96 -172 -160 -277q-100 -176 -200 -419q-29 -70 -51.5 -124.5t-32 -74t-16.5 -38.5t-17 -44q-8 -20 -8 -23q0 -4 -80 -4h-80l-2 142v20q0 70 1 92.5t3 32.5 t11 28.5t20 45.5q168 418 284 627q25 43 25 47q-33 2 -84 2q-23 0 -89.5 -1t-109.5 -1z" />
<glyph unicode="8" horiz-adv-x="983" d="M70 571q0 172 5 225.5t27 108.5q12 31 4 60q-8 41 -8 215q0 133 6 163q14 84 73 133.5t142 51.5q38 0 54 4q20 6 96 6q100 0 133 -8q45 -14 104.5 -63.5t79.5 -90.5q12 -27 15 -194v-68q0 -127 -27 -168q-10 -14 -10 -16t29 -21q72 -45 98 -104l14 -31l2 -170v-76 q0 -90 -7 -120.5t-34 -65.5q-35 -47 -114.5 -94t-163.5 -70q-53 -14 -174 -14q-102 0 -138 5t-79 24q-84 41 -115 133q-12 33 -12 245zM260 590l10 -23q16 -33 54 -60.5t75 -35.5h7q51 0 141 47q109 59 108.5 75.5t-166.5 100.5q-90 47 -116 54q-16 2 -37 -21 q-41 -45 -64 -104zM326 1171l12 -12q14 -12 48 -26.5t44 -14.5q12 0 61.5 23.5t49.5 29.5q0 10 -47 41q-16 12 -54 13q-53 0 -96 -37z" />
<glyph unicode="9" horiz-adv-x="829" d="M70 1049v188l16 41q29 66 76 121t94 78q61 29 162 34q69 2 69 10.5t82 8.5q78 0 86 -8q10 -10 56 -11h49l2 -227q0 -182 -6 -450.5t-8 -391.5l-5 -260h-161l-4 97q-4 106 -5 278l-2 180q-29 -18 -86 -39q-39 -14 -147 -14q-90 0 -119 6t-63 31q-53 39 -76 113 q-10 33 -10 215zM268 1047l15 -19q14 -18 36 -33l21 -14l29 12q106 49 168 150q20 31 12 45t-17 14q-8 4 -10 12q-4 10 -20 11q-20 0 -58 -13q-98 -33 -159 -137z" />
<glyph unicode=":" horiz-adv-x="317" d="M70 121v137q0 139 4 143q2 2 84 2h80q0 -47 -2.5 -140t-2.5 -140l-81 -2h-82zM78 1012q0 81 4 114l4 23h162v-283h-162l-4 27q-4 33 -4 119z" />
<glyph unicode=";" horiz-adv-x="378" d="M76 -113v269q12 31 36.5 91t37.5 91h159v-143v-43v-62.5t-3 -34t-6 -21.5t-12 -25.5t-18 -45.5q-14 -41 -28 -67q-4 -8 -84 -9h-82zM135 995q0 50 4 107l4 47h160v-283h-160l-4 33q-4 45 -4 96z" />
<glyph unicode="&#x3c;" horiz-adv-x="1087" d="M72 827v41q0 76 4 89.5t28 17.5q20 4 111 49q166 80 541 213l63 23h84l82 2q-2 -47 -2 -141.5t-2 -141.5l-63 -21q-365 -121 -365 -133q0 -6 25 -12q205 -84 337 -160q45 -27 56 -26q12 0 26 -11l19 -10v-282h-168l-45 24q-176 100 -277 141q-201 86 -274 119 q-115 51 -139 62q-33 14 -37 18t-4 139z" />
<glyph unicode="=" horiz-adv-x="1046" d="M70 459v282l71 4q213 12 334 13q47 0 137 -4q20 0 78 -4.5t76 -4.5q96 -4 174 -24l33 -8v-277l-86 -2h-43q-39 0 -68 4q-8 2 -92 17q-72 12 -221 12q-141 0 -273 -4zM74 815v283l88 6q20 2 48 4t53.5 4t33.5 2q23 2 115 2q346 0 436 -14l41 -6l2 -140v-139l-84 -4 q-12 0 -31.5 -1t-27.5 -1q-39 0 -70 6q-61 12 -221 12q-88 0 -138 -6q-78 -8 -155 -8h-90z" />
<glyph unicode="&#x3e;" horiz-adv-x="1048" d="M74 344v139l2 142l20 2q29 6 142 78q104 68 194 96l49 18l-67 33q-162 76 -215 84l-27 2v145l-2 142h82q68 0 101.5 -7.5t111.5 -39.5q100 -41 256 -120t215 -118l41 -27v-139q0 -141 -8 -141t-29 -8q-74 -31 -123 -41q-45 -10 -88 -23q-8 -2 -18.5 -4t-16.5 -4t-8 -2 q-14 0 -84 -25q-68 -23 -108.5 -43t-98 -57t-88.5 -55l-47 -27h-186z" />
<glyph unicode="?" horiz-adv-x="948" d="M74 1245v135l2 133l18 11q45 27 139 35q41 4 197 4q158 0 203 -13q68 -16 131 -56t90 -83l16 -27q2 -53 2 -158.5t2 -158.5l-14 -23q-18 -33 -162 -167q-74 -70 -105.5 -105t-78.5 -100l-29 -37h-147v141q0 143 6 143.5t21 18.5q57 80 178 199l86 84l-33 18 q-100 57 -190 57q-14 0 -23 -2q-88 -12 -133 -34q-29 -14 -103 -15h-73zM358 305q0 129 9 152h155v-129q0 -129 -4 -142q-2 -8 -31 -8h-49h-78z" />
<glyph unicode="@" horiz-adv-x="1513" d="M70 930q0 160 6 194q25 145 145 267q136 134 326 161q41 4 115 4q168 0 235 -10q248 -39 379 -160q127 -117 158 -290q8 -39 8 -240q0 -152 -6 -178q-20 -100 -79 -170t-143 -96q-31 -10 -131 -11q-92 0 -122.5 8.5t-63.5 41.5l-27 26l-28 -8q-41 -8 -113 -8 q-74 0 -115 8q-57 14 -86 61l-14 25l-2 166v80q0 84 6 115.5t27 74.5q43 86 102 117q29 14 113 14q66 0 83 -4t17 -18q0 -8 63.5 -8t65.5 -13q4 -12 4 -131v-121l19 -39q18 -37 47 -65l24 -25l31 15q74 39 121 129q18 37 18 49q0 10 -22 61q-92 197 -297 267 q-141 47 -236 47q-45 0 -75 -9q-180 -45 -304 -213q-61 -80 -61 -122q0 -14 14 -58q74 -209 285 -434l25 -27v-276h-160l-39 43q-268 293 -307 557q-6 43 -6 203zM733 770q0 -8 33 23q6 6 8 10t3 7t-1 3t-22.5 -19.5t-20.5 -23.5z" />
<glyph unicode="A" horiz-adv-x="1275" d="M74 184v115q0 115 4 115t32.5 65.5t73.5 173t88 219.5q80 205 164 377q101 208 117 228l14 16h88q88 0 88 -8q0 -23 113 -256q113 -231 199 -432q86 -207 96 -254q6 -29 29 -74l20 -39v-246h-178l-10 21q-10 16 -26.5 77.5t-20.5 71.5q-10 31 -65.5 158t-59.5 133 q-6 6 -78 6q-70 0 -100 -6q-14 -4 -121 -8l-95 -4l-24 -64q-61 -162 -158 -385h-190zM582 940q0 -2 10 -2q8 0 22.5 1t33 3t28.5 2l22 2q0 2 -34 74q-20 43 -23 43q-59 -96 -59 -123z" />
<glyph unicode="B" horiz-adv-x="995" d="M66 309q0 141 4 146q6 6 6 403q0 227 -4 309q-6 123 -6 197v123h18q23 0 49.5 10t77.5 14q20 2 86 2q135 0 186 -8q125 -20 235.5 -75.5t131.5 -108.5q6 -12 6 -166v-45q0 -88 -5 -109.5t-30 -52.5l-20 -22l20 -13q23 -12 51.5 -40.5t38.5 -47.5q10 -20 11 -178v-158 l-13 -24q-29 -53 -112 -141q-78 -78 -165 -113t-224 -43q-188 -8 -234 -8q-51 0 -76 4l-30 6zM244 449l30 2q190 14 297 90q27 20 62 53t35 41q0 4 -42 23.5t-67 27.5q-82 31 -231 37l-84 4v-278zM244 1016l39 10q143 33 262 102l30 19l-32 14q-98 44 -178 58q-35 8 -50 8 q-33 -6 -36 -25q0 -14 -19 -14h-16v-172z" />
<glyph unicode="C" horiz-adv-x="1015" d="M70 762q0 164 8 246q31 248 164 387q106 109 241 131q14 2 158 2q139 -2 186 -15q39 -8 84 -24l29 -12l2 -146v-145q-10 -4 -39 -4h-59h-29q-49 4 -51 12q-2 12 -39 25q-66 18 -98 18q-39 0 -99 -27q-215 -96 -278 -407q-6 -31 -6 -41t6 -41q31 -133 87 -204t155 -97 q37 -10 63 -10q33 0 100 12q61 10 78 17t19 26v18h163v-151l3 -150q-47 -35 -140 -47q-4 0 -35.5 -4t-48.5 -6q-49 -4 -114 -4q-166 0 -218 12q-88 18 -143 64q-113 92 -141 319q-8 82 -8 246z" />
<glyph unicode="D" horiz-adv-x="876" d="M66 1434q0 72 2 79q2 14 6 16.5t18 4.5q18 2 96 2q117 0 162 -4q174 -27 314 -160q98 -94 131 -207q12 -39 12 -252v-213l-14 -49q-33 -106 -119 -230t-174 -190q-37 -29 -58.5 -35t-79.5 -6q-51 0 -60 -1t-9 -9t-11.5 -9t-70.5 -1q-86 0 -90 2q-8 2 -8 43q0 39 -12.5 41 t-14.5 33q-4 37 -4 246q0 92 -8 444t-8 455zM246 1100q0 -80 2 -203t5 -214t3 -93q6 -49 6 -72q0 -12 25 -12q20 0 37.5 10t58.5 51q121 113 195 262q32 64 32 79q0 13 -8 30q-35 82 -121 157.5t-188 114.5q-33 14 -41 15q-6 0 -6 -125z" />
<glyph unicode="E" horiz-adv-x="870" d="M66 1501h45q35 0 113.5 9.5t94.5 11.5q68 6 236 6h193v-144q0 -143 -6.5 -149t-133.5 -6q-156 0 -260 -19q-67 -8 -67 -12q0 -2 -13 -6q-10 -16 -12 -25q0 -6 1 -18t2 -33.5t1 -40.5l4 -94l35 2q33 4 41 -4q4 -4 186 -4q180 0 189 -8q6 -6 6 -148v-143h-457v-225l27 4 q12 2 225 16q66 6 156 6h30l91 -2q2 -49 2 -146.5t2 -146.5l-80 -4q-47 -2 -158 -12q-246 -20 -381 -21h-88l-4 422q-4 434 -8 465q-4 25 -8 258z" />
<glyph unicode="F" horiz-adv-x="741" d="M66 1411q0 98 4 111q4 10 67 12q68 2 185 2q182 0 307 -12l37 -2v-297h-93q-53 0 -120.5 6t-104.5 6h-35l-61 -4l2 -53q0 -12 2 -48t4 -51l2 -43l150 -2q145 0 157 -6q6 -6 6 -151v-146l-96 4q-154 6 -157 6l-60 2v-276l2 -274h-170l-4 22q-14 96 -14 217q0 86 6 209 q4 90 4 113q0 2 -8 215q-12 221 -12 440z" />
<glyph unicode="G" horiz-adv-x="1134" d="M70 592q0 158 8 229.5t37 177.5q84 313 221 445q60 55 119 69q31 6 139 7h9q101 0 155 -11q94 -16 129 -51v-141q0 -141 -10 -152q-8 -10 -89 -10h-79v21q0 20 -13.5 29t-56.5 20l-41 8l-39 -19q-84 -41 -158.5 -170t-126.5 -317q-22 -84 -22 -114q0 -13 4 -33 q39 -115 150 -170q55 -27 94 -27q33 0 98 18q59 16 137 54.5t107 64.5q16 12 24 12q10 0 11 33v31l-25 -2q-20 0 -61 -8q-49 -8 -129 -8h-91v139q0 137 11 145q8 8 69 10q10 0 133 13q61 6 117 6h43q74 -2 93.5 -8t23.5 -29v-18q2 -20 2 -37q0 -238 -10 -336q-6 -70 -9 -113 q-4 -70 -14 -74q-12 -4 -12 -16q-2 -12 -59.5 -46t-131.5 -67q-51 -23 -125 -38q-51 -12 -202 -13q-145 0 -187 10q-209 57 -239 285q-4 45 -4 201z" />
<glyph unicode="H" horiz-adv-x="884" d="M68 1337q0 172 8 183q6 6 43 6h37l73 -2q16 -31 17 -84v-82q0 -139 -8 -144q-6 -2 -7 -24q0 -8 1 -19.5t2.5 -32t1.5 -38.5q6 -92 6 -131q0 -29 28 -29q10 0 52 4q166 16 256 19q79 2 79 8q0 1 -1 37t-3 101t-2 126v125q0 121 4 133q6 10 84 10l78 -2v-414 q0 -539 -22 -739q-8 -94 -9 -135q0 -49 -4 -53q-6 -6 -75 -6h-74l-6 20q-6 14 -6 129q0 137 6 172q20 133 20 201l4 14h-41q-14 0 -75 -6q-10 -2 -138.5 -11t-138.5 -9q0 -10 6 -197.5t6 -257.5q0 -49 -2 -59h-73q-76 0 -78 6q-14 25 -21 276q-4 170 -12 334 q-16 322 -16 571z" />
<glyph unicode="I" horiz-adv-x="368" d="M74 1376q0 146 10 148q8 4 86 4t84 -6q8 -14 14 -156q4 -66 17 -262q18 -244 18 -549q0 -25 -1 -70t-1 -67q-4 -201 -8 -242l-4 -35h-170l2 152v268q0 133 -27 543q-8 125 -14 125t-6 147z" />
<glyph unicode="J" horiz-adv-x="634" d="M72 250v282h82q79 0 79 -6q0 -10 57.5 -38.5t80.5 -28.5q4 0 6 2q26 26 26 264v18q0 102 -2 162q-10 430 -10 496q0 12 1 23.5t1 17.5v6q2 6 86 6l82 -2l2 -127q4 -111 4 -584q0 -430 -4 -454q-12 -94 -35 -117l-16 -16h-102h-66q-47 0 -88 10q-119 31 -184 86z" />
<glyph unicode="K" horiz-adv-x="991" d="M68 1354v147h170q10 -68 22 -362l6 -127l88 84q43 41 101.5 101t133.5 142t93 103l55 53h86q86 0 86 -8v-279l-55 -55q-72 -72 -162 -172q-66 -71 -66 -78q0 -5 66 -115q61 -102 107 -180q41 -70 82 -119l39 -47l-2 -145v-145l-82 -2h-52q-31 0 -41 10q-31 35 -60.5 78 t-42.5 63.5t-52 88t-47 83.5q-125 213 -138 213q-2 0 -67 -65l-68 -68l2 -201v-205h-170l-4 52q-4 53 -4 321q0 391 -16 590q-8 107 -8 244z" />
<glyph unicode="L" horiz-adv-x="747" d="M66 446q0 270 2 279q12 45 12 289v39q-2 39 -2 229q0 172 2 174q4 4 80 4h78l6 -112q6 -119 6 -330q0 -365 -14 -524l-3 -31l115 2h41q123 0 252 -21l33 -6v-280h-80q-84 0 -115 8q-27 8 -151 8q-92 0 -92 -6q-2 -6 -84 -6t-84 10q-2 6 -2 274z" />
<glyph unicode="M" horiz-adv-x="1320" d="M66 195l4 260q4 340 4 440q0 90 -4 352l-4 215h178l51 -96q180 -334 233 -469q12 -35 45 -102.5t61 -119.5t30 -52q4 0 32 88q37 111 123 303q72 152 168 375q29 57 29 69q0 8 114 8h117l2 -145q4 -201 4 -324q0 -248 -8 -403q-6 -96 -10 -266l-2 -150h-166v205 q0 199 4 281q14 215 14 274v14l-2 23l-24 -57q-45 -104 -84 -188.5t-67.5 -160t-59.5 -164t-55 -149.5l-27 -68h-162v15q0 16 -14 16q-12 0 -20.5 10.5t-37.5 61.5q-115 201 -165 336q-20 55 -72 151l-49 101l-2 -195q0 -45 -2 -101.5t-3 -92t-1 -46.5q-2 -25 -2 -153 l-3 -109l-34 4q-10 2 -42 3t-44 1z" />
<glyph unicode="N" horiz-adv-x="1112" d="M66 244q0 14 1 52t1 62q4 205 4 369q0 190 -4 502q-2 68 -2 155q0 76 8 101h86h57q31 0 31 -6q0 -12 71 -84q184 -190 338 -439q76 -121 170 -239l47 -58l5 48q2 12 2 59q0 96 -11 326q-4 147 -4 301q0 102 2 106q2 8 84 8t84 -12q10 -47 11 -651q0 -252 -5 -490l-6 -186 h-80q-66 0 -79 6t-35 43q-14 27 -117 154q-154 190 -242 334q-141 227 -239 325l-2 -377q-4 -360 -9 -438l-2 -61h-161q-4 29 -4 90z" />
<glyph unicode="O" horiz-adv-x="1073" d="M70 799v59q2 172 16 232q33 137 93.5 237t129.5 133q51 25 123 25q41 0 43 10t88 10q82 0 115 -10q80 -25 156.5 -114t117.5 -199q29 -84 39 -172t10 -273q0 -264 -26 -342q-70 -203 -264 -248q-45 -12 -166 -12q-119 0 -164 12q-78 20 -125 58q-160 123 -182 407 q-4 61 -4 187zM250 801q0 -41 18 -96q41 -113 97.5 -177.5t140.5 -91.5l41 -12l43 12q139 47 198 172q41 82 41 135q0 33 -22.5 113t-44.5 123q-45 86 -103 143l-41 43h-75q-74 0 -74 6q0 20 -39 -10q-82 -66 -135 -194q-45 -109 -45 -166z" />
<glyph unicode="P" horiz-adv-x="696" d="M66 1364q0 88 4 92q4 8 86 10q102 6 120 7q10 0 56 -5q88 -8 160.5 -52t103.5 -107q20 -41 24.5 -77t4.5 -163q0 -154 -15 -199q-31 -102 -112 -184q-47 -47 -76 -58.5t-100 -11.5q-68 0 -70 -12q-4 -16 -4 -47q0 -53 8 -82q6 -20 6 -162l-2 -137h-162l-6 27 q-8 31 -8 436q0 379 -10 485q-8 98 -8 240zM250 1126.5q0 -10.5 1 -38t1 -46.5l4 -116h20q25 0 54 28q49 45 80 103q6 10 -23 39q-32 33 -61 47q-49 28 -67 28h-1q-6 0 -6 -4l-2 -6v-15v-19.5z" />
<glyph unicode="Q" horiz-adv-x="1306" d="M70 799v225l14 51q43 154 166 275q121 114 246 143q39 8 106 8h68q133 0 174 -12q137 -39 256 -146q94 -86 125 -194q12 -47 12 -246l-2 -209l-12 -45q-10 -31 -29 -67q-12 -25 -25.5 -31t-56.5 -6h-39l-86 2l-2 141v141h14q14 0 22.5 8.5t21 35t4.5 49.5 q-25 66 -97.5 137t-158.5 115q-84 40 -125 40h-2q-31 0 -87.5 -25.5t-105.5 -62.5q-76 -57 -131 -129q-25 -31 -53.5 -87t-36.5 -93q-4 -25 4 -51q33 -94 119 -177t186 -116q49 -16 84 -16q25 0 86 14q43 12 127 12h76l43 -69q94 -162 117 -174q10 -4 10 -150v-143h-162 l-27 37q-43 61 -73 112l-45 74l-164 2q-168 2 -207 14q-119 35 -215 132.5t-127 211.5q-12 49 -12 269z" />
<glyph unicode="R" horiz-adv-x="946" d="M74 1358v160h18q16 0 46 9t40 11q25 6 127 6q133 0 174 -8q92 -20 135 -117q18 -39 22.5 -83t8.5 -187l4 -174l23 -45q23 -39 91 -198t79 -179l30 -66v-290h-165l-15 28q-25 41 -119 262q-33 74 -82 173.5t-63 113.5q-4 4 -37 4h-29l-59 -2v-274q0 -276 -2 -279 q-4 -4 -4 -33v-30h-170v200q0 238 -5 329t-28 339q-2 45 -12 115q-8 55 -8 215zM276 1223l5 -68q4 -68 6 -70q4 -4 16 -4q49 0 123 19l31 2q-35 92 -97 123q-29 12 -37 12t-26 -6z" />
<glyph unicode="S" horiz-adv-x="991" d="M68 1077v74q0 84 7 111.5t34 68.5q102 152 262 193q40 10 155 10q135 0 322 -41v-143l-2 -144l-86 -2q-84 0 -84 6q0 8 -13.5 12.5t-37 7.5t-29.5 5q-49 8 -53 8q-18 0 -64 -16q-84 -35 -143 -92l-43 -41q119 -98 332 -170q125 -43 145 -54q76 -37 115 -94 q25 -37 30 -71.5t5 -165.5q0 -150 -13 -187q-23 -76 -131 -129q-88 -43 -102 -43h-2q-16 -4 -35 -8q-29 -6 -281 -22q-104 -6 -168 -7h-106v283l78 4q152 8 178 8q139 6 229 41q31 12 75 36t44 28t-38 28.5t-60 32.5q-16 6 -109 37q-190 63 -295 137q-66 47 -96 101l-18 32z " />
<glyph unicode="T" horiz-adv-x="1058" d="M76 1212v281l203 -4q111 -2 294 -2q20 0 111.5 1t138.5 1h158l2 -139v-142q-43 -6 -160 -6q-154 0 -184 -2q-55 -4 -55 -16.5t-4 -12.5q-2 0 -2 -8t1 -21.5t3 -29.5q32 -324 32 -667v-21q0 -150 -4 -211l-4 -70h-160l-6 13q-4 8 -4 108q0 178 6 178q4 0 4 29 q0 43 -20 282.5t-20 327.5v115l-35 4q-18 2 -135 5t-134 5z" />
<glyph unicode="U" horiz-adv-x="880" d="M68 950q0 182 2 297l4 297h174v-321v-160q0 -223 20 -334q33 -195 125 -240l23 -12l43 19q61 25 90 52t43 75q39 137 39 507q0 147 -2 234l-4 174h170l8 -35q8 -47 8 -268q0 -631 -31 -809q-18 -113 -45.5 -151.5t-113.5 -73.5l-56 -23q-49 -2 -147.5 -2t-147.5 -2 l-34 19q-70 35 -102 107.5t-52 250.5q-14 117 -14 399z" />
<glyph unicode="V" horiz-adv-x="962" d="M76 1364v139h162l22 -55q53 -127 125 -365q55 -186 74 -229q43 -102 43 -125q0 -6 4 -6q6 0 6 8q0 6 37 139q25 90 56.5 204t60.5 214q49 178 49 180q2 8 4 16.5t2 14.5l2 4q4 4 84 4h80v-135q0 -135 -4 -160q-10 -45 -48 -172t-49 -176q-4 -14 -18 -65t-18 -70 q-4 -14 -13 -43q-8 -25 -63.5 -228.5t-61.5 -226.5l-16 -51h-78l-80 2l-12 37q-14 47 -141 397q-10 25 -68.5 216.5t-75.5 234.5q-16 47 -57 137q-8 16 -8 160z" />
<glyph unicode="W" horiz-adv-x="1652" d="M76 1339q0 144 4 148t90 4h18q59 0 69.5 -7t10.5 -50t58 -179q82 -199 127 -340q49 -152 49 -174q0 -20 10 11q4 10 8 22q45 152 115 367q61 188 65 225q8 47 11 53q4 8 104 8q70 0 74 -6q12 -20 65 -233q66 -276 105 -395q14 -47 38.5 -103.5t31 -56.5t36 95t56.5 198 q61 227 108 338q27 68 33 94q20 61 31 80l16 35h84l84 2v-287l-21 -45q-23 -45 -22 -56q0 -31 -39 -116q-20 -45 -51 -142q-12 -37 -58 -208q-78 -293 -137 -412l-16 -31l-88 -2h-88l-15 19q-27 37 -112 206q-31 63 -64 187q-29 100 -49 184q-14 64 -16 64t-88 -273 q-53 -180 -74 -274q-31 -137 -37 -152q-4 -10 -86 -10q-68 0 -80 5t-28 36q-20 43 -56 205q-31 139 -65 248q-68 209 -123 329q-66 147 -80 211q-8 33 -8 178z" />
<glyph unicode="X" horiz-adv-x="1118" d="M70 1208v293h172l18 -20q2 -2 279 -310q20 -25 26 -18q8 8 72 96q143 199 176 232l16 16q27 -2 81.5 -2t82.5 -2l2 -143v-142l-37 -43q-31 -35 -200 -272q-2 -2 -2 -6q0 -12 51 -92q53 -84 123 -174q66 -84 90 -129l24 -43v-285h-174l-20 41q-20 39 -76 110 q-61 78 -102 140q-102 166 -112.5 166t-133.5 -201q-127 -215 -150 -242l-18 -24h-86q-86 0 -88 8q-2 4 -2 143t2 144q4 8 10 8q10 0 94 139q41 66 127 201l54 84q0 10 -47 59q-29 29 -98.5 106.5t-104.5 112.5z" />
<glyph unicode="Y" horiz-adv-x="966" d="M74 1151v137l2 137h178q4 -29 35 -75q63 -96 129 -238q14 -31 24.5 -55.5t17.5 -38.5t12 -23.5t7 -11.5l4 -4q8 23 17 47q37 113 114 219q60 86 115 197q6 6 82 6l76 -2q2 -47 2 -138t2 -137l-27 -51q-25 -49 -24 -55q0 -4 -34 -52t-38 -50q-2 0 -45 -74 q-14 -27 -51 -117t-51 -119l-21 -49l2 -256v-254h-82q-61 0 -71.5 2t-12.5 10l-4 170q-4 168 -10 220l-6 59l-45 70q-68 104 -107 194q-59 135 -106 211q-27 43 -64 94z" />
<glyph unicode="Z" horiz-adv-x="919" d="M70 131v141v72q0 23 1 36t2 22.5t8 20.5t10 17t18.5 24.5t25.5 31.5q78 98 197 301q49 86 116.5 215t67.5 139q0 2 -37 2q-127 0 -262 -6l-147 -4l2 141v141l102 5q151 6 270 8q131 4 271 4q35 0 53 -1t28.5 -3t12.5 -5t2 -10q0 -10 6 -10q8 0 8 -137q0 -139 -8 -150 q-27 -31 -160 -295q-106 -213 -204 -376l-21 -39q403 -12 408 -15q6 -4 6 -143v-139l-111 4q-49 2 -387 6z" />
<glyph unicode="[" horiz-adv-x="606" d="M66 -168l4 205q2 201 11 411.5t9 370.5v139q-4 295 -4 412l-2 141l39 5q61 4 104 4q72 0 166 -9q16 -2 43 -4t43.5 -4t22.5 -2l26 -2v-141q0 -143 -8 -146q-4 -2 -57 -2q-102 0 -102.5 4.5t-48.5 10.5t-58 6v-440q0 -410 -12 -621l-4 -66q74 -10 155 -14l103 -4l2 -141 v-142l-172 4q-213 2 -260 25z" />
<glyph unicode="\" horiz-adv-x="854" d="M74 1270v135q0 133 4 137q2 2 82 2l78 -2l53 -106q39 -76 126 -284t89 -214q78 -178 133 -379q63 -238 113 -330l22 -43q0 -45 -2 -136t-2 -136h-78l-80 -2l-22 41q-49 94 -119 352q-23 88 -53.5 172t-86 214t-73.5 177q-84 207 -141 320z" />
<glyph unicode="]" horiz-adv-x="614" d="M74 82l141 6l143 4l2 66q4 68 7 69q12 20 12 674q0 207 -4 273l-2 40l-49 7q-86 14 -179 14h-71v139q0 138 4 142q2 2 69 2q164 0 234 -7q31 -4 115 -10l43 -4l4 -96q4 -143 4 -776q0 -383 -2 -459q-2 -80 -9.5 -144.5t-7.5 -132.5l-4 -82q-104 -2 -227 -4l-223 -4v283z " />
<glyph unicode="^" horiz-adv-x="956" d="M72 721v131l22 53q70 152 113 228q33 55 130 199.5t107 152.5q4 4 84 4h80l21 -39q76 -152 182 -449q43 -125 61 -124q8 0 9.5 -18.5t1.5 -125.5v-141h-84q-86 0 -90 4q-12 6 -62 139q-98 270 -131 330l-4 6q-2 0 -49 -65q-109 -160 -184 -328q-23 -47 -43 -88h-162z" />
<glyph unicode="_" horiz-adv-x="1085" d="M70 -20v137q0 137 4 141q2 2 47 2q123 0 180 -8q55 -8 305 -8q244 0 244 6t82 6h82v-283q-6 -6 -17.5 -14t-15.5 -14l-88 -2h-45q-49 0 -82 8q-37 10 -287 10q-246 0 -329 8z" />
<glyph unicode="`" horiz-adv-x="555" d="M72 1499q0 111 4 115q2 2 82 2l80 -2v-17q0 -12 32 -45q94 -90 176 -145l37 -27v-276h-161l-29 20q-43 29 -124 99.5t-91 87.5q-6 8 -6 188z" />
<glyph unicode="a" horiz-adv-x="854" d="M70 522v66q2 158 8 202t39 111q67 141 176 170q18 6 72 6q8 0 39.5 -1t54.5 -1q287 -4 299 -16q10 -10 12 -121q14 -502 14 -553v-274h-161v22q0 10 -2.5 16.5t-6.5 6.5t-10 -4q-23 -23 -96 -35q-49 -8 -160 -8q-88 0 -112 6q-96 20 -138 143q-28 81 -28 252v12zM254 561 q0 -8 6 -29q27 -94 88 -124q16 -10 53 2q88 31 129 86q41 53 64 135q6 20 6 53q0 39 -8 100h-84q-84 0 -109 -12q-78 -37 -135 -176q-10 -23 -10 -35z" />
<glyph unicode="b" horiz-adv-x="907" d="M70 1352q0 131 8 161l8 27h82q80 0 82 -12l10 -479q49 27 92 36t137 9q88 0 122 -5.5t73 -25.5q45 -25 85 -80t56 -121q10 -43 11 -213q0 -166 -13 -213q-25 -84 -96.5 -180t-138.5 -135q-41 -25 -74 -31t-121 -6t-114.5 5t-55.5 28q-25 18 -71 18h-50l-4 232 q-4 254 -4 395q0 227 -2 307q-2 145 -14 145q-8 0 -8 138zM262 420h47q35 0 43 -2t23 -17q18 -18 26 -18q29 0 107 78q61 61 117 160l18 30l-10 23q-37 71 -107 110q-29 14 -39 15q-41 0 -104 -60q-70 -63 -70 -133v-31h-51v-155z" />
<glyph unicode="c" horiz-adv-x="804" d="M70 532v72q2 141 8 178t37 103q41 84 98 147q39 42 92 60q20 6 137 6q168 0 246 -29q23 -8 29 -13t11 -19.5t5 -47.5q0 -10 -1 -38.5t-1 -51.5q-2 -135 -8 -141q-4 -2 -86 -2q-59 0 -69.5 2t-12.5 10q-4 23 -78 37q-6 2 -16 2q-35 0 -78 -41q-31 -29 -74 -94.5t-43 -83.5 q0 -27 62 -84q86 -80 282 -80h88v-141q0 -141 -8 -146q-4 -2 -98 -6h-25q-172 0 -248 23q-18 6 -34 6q-12 0 -51 20.5t-62 40.5q-51 41 -80 111q-22 51 -22 188v12z" />
<glyph unicode="d" horiz-adv-x="909" d="M70 582q0 133 6 170q41 219 250 276q84 25 245 25h103l-4 63q-5 66 -11 84q-6 29 -6 158q0 131 6 162h160l2 -25q16 -147 18.5 -216t2.5 -353q0 -680 -19 -703q-6 -6 -49 -16q-33 -8 -88 -27q-102 -35 -256 -35q-147 0 -217 33q-113 55 -135 184q-8 41 -8 220zM260 565 l12 -22q27 -55 101 -88q37 -18 61 -19q27 0 101 25q84 27 98 28q25 4 31 11q2 2 6 133l4 131h-68q-238 0 -327 -166z" />
<glyph unicode="e" horiz-adv-x="825" d="M70 627q0 137 5 176t27 92q62 145 203 184q25 6 121 6q111 0 145 -6q47 -8 93.5 -36.5t66.5 -61.5q16 -29 20.5 -62.5t4.5 -166.5v-111q0 -57 -6 -61q-6 -6 -50 -19q-162 -45 -327 -45h-70l16 -16q35 -37 96.5 -68t100.5 -31q27 0 60.5 19.5t33.5 34.5v12q25 0 72 -2 t72 -2l2 -133v-133l-27 -19q-37 -23 -65.5 -28t-135.5 -7h-65q-63 0 -94 7q-199 45 -271 215q-20 47 -24 87t-4 175zM342 774h4q20 0 85 10.5t71 14.5l-15 10q-2 0 -6 2q-31 12 -43 12q-8 0 -24.5 -6t-44 -22.5t-27.5 -20.5z" />
<glyph unicode="f" horiz-adv-x="905" d="M74 809v281h248l2 20q6 39 12 100q25 258 106 320q33 27 70 35q16 4 98 4q86 0 107 -4q23 -2 74 -17l38 -10v-278l-94 2q-92 0 -104 6h-2q-10 0 -37 -24.5t-35 -41.5q-8 -12 -23.5 -61t-15.5 -56q0 -4 115 -26l35 -8v-277h-93l-94 2l-8 -88q-10 -104 -12 -338 q-4 -244 -8 -254q-6 -6 -86 -6h-80l2 285q2 115 5 248t3 184q-51 2 -113 2h-110z" />
<glyph unicode="g" horiz-adv-x="806" d="M70 592q0 158 5 207t27 96q27 61 79.5 112.5t99.5 65.5q20 4 106 4q113 0 139 -6q94 -20 95 -31q0 -8 34 -8q37 0 37 -6q2 -12 19 -94q18 -111 24 -584q2 -106 2 -244q0 -158 -26 -274q-35 -156 -66 -203q-23 -35 -78 -53q-37 -8 -133 -8q-119 0 -153 10q-76 23 -117 100 q-10 20 -10 168v144h79q82 0 82 -8q0 -23 30 -61t54 -50l27 -12l23 14q41 27 59 86q35 113 43 154l6 32h-108q-160 0 -201 15q-131 43 -168 200q-10 43 -10 234zM254 594q0 -14 17.5 -44t37.5 -50q41 -45 97 -62q27 -8 51 2q33 14 60.5 55.5t27.5 90.5q0 23 -8.5 82t-8.5 77 v19h-34q-20 0 -28.5 2t-18 5t-23.5 5q-6 2 -16.5 2t-57.5 -39q-27 -23 -61.5 -76t-34.5 -69z" />
<glyph unicode="h" horiz-adv-x="897" d="M66 129v178q0 176 6 205t6 272q0 86 -4 435q0 45 -1 106t-1 80q0 82 4 115q4 36 8 40.5t82 4.5t78 -9v-102q0 -365 2 -381l4 -24q27 14 42 15t118 3h67q68 0 125 -10q102 -20 142 -58t57 -139q12 -66 14 -256q4 -195 6 -196q4 -4 4 -142v-135h-166v33q0 35 -6 41 q-2 2 -6 178q-2 178 -10 221q-14 84 -54 120t-124 50q-8 2 -25 2q-31 0 -65 -35q-45 -45 -74 -159q-12 -45 -62 -394l-8 -55q-27 -2 -80 -2t-79 -2z" />
<glyph unicode="i" horiz-adv-x="362" d="M68 1186v278l45 2q14 0 38.5 1t32.5 1q31 0 56 -10v-135l-2 -135l-84 -2h-86zM72 932v141h82q84 0 84 -6q2 -8 12 -123t12 -156q16 -315 23 -356q6 -49 6 -182v-150h-82l-84 2l-4 62q-8 72 -12 164q-10 236 -27 374q-10 109 -10 230z" />
<glyph unicode="j" horiz-adv-x="600" d="M82 -33h82h41t25.5 -1t18.5 -3t10 -3t12.5 -7t15.5 -10q43 76 59 226t16 445v154q0 47 -1 112.5t-1 82.5q0 100 7 118l6 23q27 -2 79 -2t78 -2l2 -398v-198q0 -264 -14 -490q-18 -336 -102 -379q-16 -8 -109 -8q-86 0 -119 8q-41 12 -106 56v276zM336 1210v133 q0 140 2 144q2 6 84 6l78 -2q0 -47 2 -140.5t2 -140.5h-168z" />
<glyph unicode="k" horiz-adv-x="903" d="M74 1483q0 94 2 110q4 33 8 40t29 7h59l80 -2v-172q0 -102 2 -161.5t9 -141.5t11 -139l7 -117l102 76q90 63 141 111l35 36q25 0 76 -2t78 -2l2 -139v-137l-23 -25q-25 -27 -145 -116l-49 -37l55 -47q162 -133 223 -172l49 -31l2 -137v-140h-165l-41 27q-59 39 -183 141 q-100 86 -143 111q-8 4 -9 3t-1 -11q0 -12 12 -13h12v-141q0 -141 -8 -149q-6 -6 -94 -7h-88q-6 25 -6 121q0 18 1 78t1 98v123q0 154 -4 236q-6 129 -27 362q-10 133 -10 359z" />
<glyph unicode="l" horiz-adv-x="372" d="M66 367q0 109 2 180q2 129 2 635q0 407 2 413q4 10 84 11h80l6 -13q6 -12 6 -157.5t-6 -147.5q-4 -2 -4 -420v-188q0 -195 5 -226.5t33 -66.5l21 -25v-278h-160l-22 31q-31 41 -33 45q-16 31 -16 207z" />
<glyph unicode="m" horiz-adv-x="1419" d="M68 1047v22q2 6 30 6h49h41q35 0 37 -10l2 -4v-6l39 8q39 10 156 12h72q72 0 116 -20q53 -27 76 -68l10 -20l15 20q27 39 90 57q37 10 151 13h62q55 0 94 -8q129 -33 182 -138q23 -45 29 -92t8 -180q2 -127 11.5 -181.5t9.5 -172.5l-2 -131h-154l-8 34q-8 33 -10 183 q-2 147 -10.5 198.5t-37.5 102.5q-37 59 -77 78q-59 30 -89 30h-2h-6q-90 -20 -136 -147t-62 -397q-2 -49 -9 -78h-75q-63 0 -73.5 3t-8.5 25q0 6 -8 113q-6 76 -11 207q-6 147 -37 219q-10 27 -43.5 49.5t-62.5 22.5q-55 0 -96 -29q-37 -25 -54 -59q-16 -45 -24 -148 q0 -16 -10.5 -181t-12.5 -185v-27h-149l-4 266q0 51 -2 150.5t-3 175.5t-1 121q-2 72 -2 166z" />
<glyph unicode="n" horiz-adv-x="966" d="M68 1083h161l4 -34q2 -18 3 -54v-20l22 20q78 70 156 88q25 4 114 4l93 -2l38 -18q41 -20 88.5 -67.5t67.5 -86.5q57 -113 66 -338q2 -57 8 -131.5t6 -177.5v-141h-160l-6 33q-6 25 -10 139q-14 295 -103 397q-18 23 -57 53.5t-47 30.5q-37 0 -143 -106 q-96 -100 -97 -185q0 -23 -8 -39t-8 -169v-154h-80q-82 0 -84 8q-2 4 -2 158q0 123 -9 294t-11 287z" />
<glyph unicode="o" horiz-adv-x="997" d="M70 633v170l12 47q37 133 113 199q63 55 142 71.5t222 16.5h86l31 -15q90 -45 168 -123q33 -33 49 -67q23 -45 28 -88t5 -176q0 -211 -29 -281q-68 -162 -223 -213q-41 -12 -162 -12q-123 0 -160 10q-100 29 -173 96.5t-99 157.5q-10 35 -10 207zM238 633l12 -27 q31 -57 98.5 -109.5t134.5 -70.5q20 -4 29 -4q25 0 82 29q113 59 158 184l10 29l-14 28q-33 59 -150 139q-35 20 -45 21q-16 0 -16 8q0 10 -35 10q-43 0 -105 -30q-102 -49 -149 -176z" />
<glyph unicode="p" horiz-adv-x="923" d="M68 172q0 289 8 588t20 321l8 17h84h47.5t30 3t17.5 4t18 7t23 10q18 6 92 6h43q102 -2 144 -10t106 -39q100 -51 129 -118q10 -23 12 -201v-109q0 -68 -10 -110q-18 -72 -86 -183q-115 -184 -191 -225q-18 -10 -117 -10h-43q-90 0 -139 29l-31 20q2 -25 11 -63 q4 -25 4 -162v-140h-78h-29q-43 0 -51 7.5t-14 46.5q-8 47 -8 311zM244 625q0 -31 1 -36t11 -5q12 0 12 -13q0 -10 31 -39q96 -88 127 -106l14 10q29 20 87.5 98t97.5 150l26 47l-24 23q-18 16 -70 42.5t-72 30.5q-2 0 -10 2t-10 5h-4q-18 0 -49 -32t-31 -57v-16h-131 l-4 -31q-2 -16 -2 -73z" />
<glyph unicode="q" horiz-adv-x="1017" d="M70 635q0 188 8 237q20 96 101 190.5t159 113.5q20 4 117 4q104 0 128.5 -6.5t92 -38t88.5 -45.5q14 -10 57 -10.5t49.5 -6.5t6.5 -149q0 -139 -8.5 -145.5t-8.5 -397.5v-391h76v-281q-23 -20 -68 -65h-77q-68 0 -103 10v127q0 51 5 196.5t5 182.5q-4 4 -30 -13 q-49 -30 -161 -30h-7h-37q-100 2 -129 14q-84 33 -160 132t-98 202q-6 27 -6 170zM258 664l18 -37q37 -74 103 -140q71 -71 105 -71h1q43 0 150 102q41 39 49 49.5t10 30.5q4 29 4 90v62l-28 2h-29l-2 20q-2 18 -17 29.5t-81 46.5q-74 35 -82 35q-18 0 -66.5 -41t-79.5 -84 q-14 -16 -39 -62z" />
<glyph unicode="r" horiz-adv-x="712" d="M68 424q0 416 45 575q28 101 145 134q18 6 137 6l111 -2l45 -19q25 -10 67 -24l23 -7v-262l-82 -2q-84 0 -96 6q-57 27 -80 27q-14 0 -44 -21.5t-46 -43.5q-31 -41 -49 -187q-10 -80 -11 -264v-188h-157l-2 53q-6 86 -6 219z" />
<glyph unicode="s" horiz-adv-x="782" d="M68 866v37q0 90 5 107.5t38 36.5q65 37 161 53q43 6 131 6q172 0 259 -12q-2 -49 -2.5 -143.5t-2.5 -143.5l-77 -2q-82 0 -82 4q0 2 -10.5 6t-18.5 5t-10 -1q0 -2 14 -7t39 -11t47 -8q66 -8 91.5 -19.5t43.5 -40.5l15 -20l2 -162v-84q0 -80 -11 -111q-18 -63 -73 -102 q-45 -33 -129 -67.5t-140 -45.5q-23 -2 -67 -16q-39 -10 -125 -10h-88v276l49 12q10 2 47 11.5t53 13.5q51 12 119 39t74 37l-29 10q-4 2 -8 2q-72 12 -154 55q-131 70 -153 134q-8 23 -8 161z" />
<glyph unicode="t" horiz-adv-x="724" d="M74 795v143q0 141 4 149q4 6 100 7h127v161q0 154 6 189h164q0 -57 -2 -170t-2 -170l82 -2q86 -4 90 -6q8 -4 8 -146v-141l-90 2q-92 0 -94 -2q-4 -4 -4 -354l-2 -353l-80 -2q-82 0 -86 9q-2 4 -6 208v142q0 164 10 301l4 37l-115 -2h-114z" />
<glyph unicode="u" horiz-adv-x="888" d="M70 940v137l77 2h78q2 -27 10.5 -107.5t14.5 -129.5t15 -117t22.5 -119t29.5 -88q14 -29 34 -54.5t30 -25.5q25 0 108 80q82 86 127 176l25 49v340h154v-26q0 -31 10 -66q10 -43 12 -215v-86q0 -109 -8 -153.5t-37 -100.5q-45 -90 -114.5 -163.5t-137.5 -104.5l-31 -16 h-108q-104 0 -131 12q-53 25 -86 91.5t-53 193.5q-14 84 -35 296q-6 49 -6 195z" />
<glyph unicode="v" horiz-adv-x="925" d="M74 1028q0 60 4 68q4 10 84 10h78l32 -66q16 -33 36 -77.5t37 -89t33.5 -90.5t30 -85t23.5 -69.5t17 -46.5l6 -19q6 6 86 219q72 188 125 275l24 39h164v-275l-25 -37q-59 -92 -124 -270q-84 -248 -154 -342l-23 -31h-161l-19 27q-16 20 -57 129q-12 27 -45 131 q-45 137 -96.5 257t-63.5 120t-12 223z" />
<glyph unicode="w" horiz-adv-x="1361" d="M74 827v136q0 135 4 139q2 2 82 2l78 -2l16 -35q72 -152 123 -418q6 -41 12 -41q2 0 19 43q35 84 159 361q2 6 6.5 14t7.5 14.5t3 8.5q6 18 18 22t72 4q78 0 84 -6q25 -31 76 -151q47 -111 96 -252q29 -90 33 -93l4 11q0 20 30.5 144t46.5 171q43 113 74 160q10 14 10 31 v16h162v-305l-14 -23q-16 -25 -16 -26q0 -4 -19 -45q-57 -127 -113 -388q-27 -125 -47 -157l-14 -21h-160l-20 29q-12 20 -37 49q-39 43 -82 176q-39 111 -66 176l-22 58l-10 -23q-25 -47 -82 -182q-115 -264 -139 -295q-8 -10 -19.5 -11t-69.5 -1q-78 0 -81 6 q-23 37 -46 158q-4 23 -20 95.5t-23 108.5q-14 72 -47.5 176.5t-56.5 143.5z" />
<glyph unicode="x" horiz-adv-x="1011" d="M72 975v127q2 6 104 6q104 0 139 -10q45 -12 64 -25q55 -33 94 -84l16 -22l41 53q41 55 41 76q1 18 7 22q2 2 86 2h81q0 -43 2.5 -128t2.5 -126l-23 -26q-10 -12 -59 -76l-37 -49l37 -74q51 -104 106 -166l31 -33h55h23q37 0 45 -17t8 -97v-43v-131l-105 2 q-104 2 -124 10q-43 18 -95 80q-43 53 -98 166q-39 76 -41 76t-14 -17q-29 -49 -185 -252q-23 -27 -22 -45v-14h-78l-76 2l-2 123q0 125 10 147q6 14 29 41q39 45 146 197q49 68 49 69q0 8 -36 39t-54 41q-25 14 -84.5 14.5t-59.5 6.5q0 4 -22 12z" />
<glyph unicode="y" horiz-adv-x="903" d="M72 981q0 41 4 70h78q63 0 76.5 -4.5t13.5 -22.5q0 -10 80 -170q63 -125 106 -229q29 -70 31 -70q4 0 22 49q12 33 68 164q111 262 117 295q4 20 10 25.5t29 5.5h47q74 0 75 -9l2 -6v-17v-21.5t-1 -42t-1 -52.5l-2 -129l-20 -53q-2 -8 -49 -127q-16 -41 -66.5 -159 t-81.5 -202q-27 -72 -28 -118q-4 -53 -9.5 -70.5t-23.5 -19.5q-12 -2 -18.5 -12.5t-28.5 -73.5q-10 -33 -39 -105t-41 -110l-6 -27h-152v133q0 113 5 143.5t38 116.5q29 72 29 80q0 18 -80 205q-25 59 -158 315l-20 43l-4 123q0 18 -1 45t-1 37z" />
<glyph unicode="z" horiz-adv-x="804" d="M68 104v279l47 57q51 63 80 109q127 195 127 207q0 4 -125 4l-127 2l-2 139v141l53 2q6 0 25.5 1.5t29.5 1.5t30.5 -1.5t29.5 -1.5q4 0 17 -1t19 -1q76 0 209 19q57 8 70 8l39 2q39 2 65 2h82v-278l-18 -11q-84 -43 -266 -354l-7 -12q47 0 142.5 4t142.5 4v-287 q-23 -8 -174 -8q-145 0 -192 -8q-111 -18 -215 -19h-82z" />
<glyph unicode="{" horiz-adv-x="759" d="M74 719v282l57 3q55 2 80 14q41 23 59 80q12 33 13.5 200.5t11.5 202.5q20 61 54 92t95 43q35 9 37 11q8 4 66 4q98 0 104 -6.5t6 -174.5q0 -102 -4 -102q-6 0 -51 -10q-55 -12 -88 -35t-48 -71t-18.5 -95t-3.5 -141q0 -139 -10 -176q-6 -25 -6 -41q0 -23 2 -39 q0 -6 4 -88t8 -155t7 -81q27 -53 186 -53q43 0 45 -10q2 -6 2 -150l-2 -137h-76q-39 0 -68.5 2t-44 4t-47 9.5t-55.5 11.5q-51 10 -69.5 18t-28.5 27q-18 33 -19 194q0 313 -88 359q-16 8 -61 8h-49z" />
<glyph unicode="|" horiz-adv-x="309" d="M66 1217l2 514q4 4 79 4q78 0 82 -6q4 -8 4 -658q0 -625 5 -903l4 -254h-162l-4 27q-2 16 -6 211q-4 295 -4 1065z" />
<glyph unicode="}" horiz-adv-x="819" d="M76 45v279h180l23 14q74 53 110 276q4 18 10.5 52t6.5 41q4 23 -9 49q-29 61 -45 188q-41 340 -116 416q-33 33 -91 41l-24 4v276h108q109 -2 127 -12q33 -16 64 -61q27 -37 52.5 -135.5t35.5 -194.5q20 -195 61 -266q8 -14 17.5 -23.5t17.5 -14.5t21.5 -10.5t23.5 -6.5 t28.5 -5t31.5 -6l34 -8v-139l2 -142h-96l-18 -18q-25 -25 -34 -51.5t-24 -122.5q-27 -166 -45 -238q-43 -162 -139 -190q-37 -12 -143 -12q-86 0 -131 10z" />
<glyph unicode="~" horiz-adv-x="1202" d="M70 602v283l22 24q117 131 160 154q32 16 61 22q49 8 129 9q47 0 80 -4q86 -14 223 -138l136 -116l88 120q10 4 84 9l77 2v-285l-45 -64q-53 -74 -75.5 -90t-85.5 -16h-41q-80 2 -115 18q-53 27 -158 123q-111 104 -182 138l-22 -13q-20 -10 -75 -62t-79 -85l-21 -29 h-161z" />
<glyph unicode="&#xa3;" horiz-adv-x="1044" d="M70 784v142l65 2q70 4 72 6q4 4 4 131q0 125 8 158q16 68 71.5 139.5t106.5 93.5q23 13 68 21q53 8 184 8q102 0 137 -6q10 0 80 -19q10 -2 22.5 -6t18.5 -6t8 -2q6 -4 7 -141v-142l-91 2q-86 2 -143 21q-37 12 -55 12q-14 0 -25 -2q-92 -20 -166 -121q-43 -61 -43 -90 v-12l2 -29l125 -4q133 -4 164 -10l39 -6l2 -88q0 -12 1 -39t1 -39q0 -14 -1 -35t-1 -27l-4 -51l-113 4q-137 4 -155 6l-43 4l-4 -96q-4 -109 -6 -123l-3 -26l252 -2q260 -2 281 -9l29 -8l2 -137v-139l-105 4q-381 8 -422 8q-78 0 -114 -4q-43 -6 -148 -6l-100 2l-2 137v139 l18 13q27 18 65 58t46 60q27 59 26 105q0 8 -79 8l-80 2z" />
<glyph unicode="&#xa5;" horiz-adv-x="1013" d="M72 1272v141h161l29 -33q104 -111 201 -295q23 -45 31 -53h2q8 0 57 58.5t94 121.5q94 135 115 199q4 8 10 26.5t10 26.5h156v-139q0 -139 -12 -174q-41 -121 -170 -285q-12 -16 -16.5 -23t-2.5 -9q2 0 9.5 -2.5t17.5 -4.5t20 -2q12 -2 40 -7t38 -5l37 -6v-277h-106 q-2 -47 -2 -140t-3 -140q-35 0 -104.5 -2t-103.5 -2v-90h-162l-4 32v17.5v17.5v10q0 8 -121 8.5t-129 4.5q-4 4 -4 143v139l119 -2h116v41l-43 -4q-49 -4 -131 -4h-86l-2 141v140q23 10 86 10q61 0 62 4q0 10 -53.5 89t-84.5 114q-23 27 -39 26q-18 0 -18 13q0 14 -6 22 q-8 14 -8 154zM575 532q2 -6 43 -4q20 2 66 2l27 2q-51 12 -107 19q-20 2 -26.5 -1t-2.5 -18z" />
<glyph unicode="&#xad;" d="M70 817v139h227q231 0 281 -6l55 -6v-285l-105 5q-57 2 -274 2q-168 0 -176 6q-8 8 -8 145z" />
<glyph unicode="&#x2000;" horiz-adv-x="867" />
<glyph unicode="&#x2001;" horiz-adv-x="1735" />
<glyph unicode="&#x2002;" horiz-adv-x="867" />
<glyph unicode="&#x2003;" horiz-adv-x="1735" />
<glyph unicode="&#x2004;" horiz-adv-x="578" />
<glyph unicode="&#x2005;" horiz-adv-x="433" />
<glyph unicode="&#x2006;" horiz-adv-x="289" />
<glyph unicode="&#x2007;" horiz-adv-x="289" />
<glyph unicode="&#x2008;" horiz-adv-x="216" />
<glyph unicode="&#x2009;" horiz-adv-x="347" />
<glyph unicode="&#x200a;" horiz-adv-x="96" />
<glyph unicode="&#x2010;" d="M70 817v139h227q231 0 281 -6l55 -6v-285l-105 5q-57 2 -274 2q-168 0 -176 6q-8 8 -8 145z" />
<glyph unicode="&#x2011;" d="M70 817v139h227q231 0 281 -6l55 -6v-285l-105 5q-57 2 -274 2q-168 0 -176 6q-8 8 -8 145z" />
<glyph unicode="&#x2012;" d="M70 817v139h227q231 0 281 -6l55 -6v-285l-105 5q-57 2 -274 2q-168 0 -176 6q-8 8 -8 145z" />
<glyph unicode="&#x2013;" horiz-adv-x="1165" d="M70 817v139h413q420 0 511 -6l100 -6v-285l-191 5q-104 2 -498 2q-306 0 -320 6q-15 8 -15 145z" />
<glyph unicode="&#x2014;" horiz-adv-x="2189" d="M70 817v139h826q840 0 1022 -6l200 -6v-285l-382 5q-207 2 -997 2q-611 0 -640 6q-29 8 -29 145z" />
<glyph unicode="&#x2018;" horiz-adv-x="438" d="M70 1024v135l57 107q60 110 68 118q12 12 49 13h41l75 -2q0 -47 2.5 -139.5t2.5 -137.5l-19 -24l-18 -27q0 -4 -41 -78q-37 -66 -43 -92q-4 -16 -8 -16h-54q-106 0 -108 2q-4 4 -4 141z" />
<glyph unicode="&#x2019;" horiz-adv-x="403" d="M70 883v102q0 80 1 117t5 66.5t8 40t16.5 43t24.5 67.5q6 20 17.5 54t13.5 36l6 21h168l-4 -140l-2 -139l-41 -119q-45 -137 -47 -147l-82 -2h-84z" />
<glyph unicode="&#x201c;" horiz-adv-x="772" d="M70 952v277l30 84q12 37 26.5 71.5t18.5 45.5h162v-138q0 -133 -10 -162q-12 -25 -37 -98l-27 -76q-27 -2 -82 -2t-81 -2zM430 969v151q0 147 8 178q23 83 74 136l25 26h161v-274l-24 -27q-29 -33 -55.5 -89t-26.5 -87v-14h-162z" />
<glyph unicode="&#x201d;" horiz-adv-x="675" d="M70 922v137q0 139 12 176q4 14 16.5 63.5t23.5 91.5t17 58h168v-135q0 -98 -2 -122t-12 -47.5t-21 -70.5q-12 -59 -26 -108l-13 -41l-81 -2h-82zM365 922v272l24 100q16 66 41 133h172v-137q0 -137 -10 -145q-6 -4 -18.5 -46t-27 -95.5t-14.5 -55.5l-8 -26h-159z" />
<glyph unicode="&#x202f;" horiz-adv-x="347" />
<glyph unicode="&#x205f;" horiz-adv-x="433" />
<glyph unicode="&#x20ac;" horiz-adv-x="1196" d="M72 553v147l2 146h24l25 2v272q27 6 104.5 10.5t100.5 8.5l59 6l21 53q59 150 141 223q61 58 176 68q2 0 17.5 1t27.5 1q127 0 219 -10q96 -10 121 -35q12 -12 12 -146q0 -135 -10 -143q-14 -10 -88 -10h-80v-264h-110q-115 0 -177 -6q-14 -2 -34.5 -4.5t-34 -4.5 t-19.5 -2q8 -2 49 -2q8 0 132 -8l55 -6v-285h-76q-70 0 -143 13q37 -82 125 -125q37 -18 84 -19q37 0 94 19q20 6 32.5 12t14.5 8t10 5t24.5 3h53.5l80 -2l2 -139q0 -139 -6 -145q-31 -23 -72 -29q-2 0 -10 -2t-20.5 -4t-20.5 -4q-39 -6 -119 -6h-84q-166 2 -190 10 q-152 53 -215 284q-14 55 -17 76l-2 33l-127 -4h-57q-61 0 -94 4zM754 1180q0 -6 77 -9q90 -4 95 -6q8 -4 8 4q-2 8 -10 15q-7 4 -50 12q-31 6 -45 6q-18 0 -41 -8q-35 -10 -34 -14z" />
<glyph unicode="&#x25fc;" horiz-adv-x="1116" d="M0 0v1116h1116v-1116h-1116z" />
<glyph horiz-adv-x="784" d="M68 289q0 10 1 49t1 70v106h82q80 0 79.5 -10t13 -23.5t27.5 -17.5q16 -4 47 4q53 16 92.5 54t80.5 112q16 29 16 37q0 10 -35 28q-27 12 -102 21q-104 10 -152 31q-74 31 -108 98q-25 49 -25 180v90q2 135 4 162t12 55q25 72 82 133.5t123 69.5q29 4 90 4q117 0 150 -8 q8 -2 63 -27l43 -18v-285h-82q-80 0 -79 4q0 6 -37 21l-37 16q-29 -12 -66 -46t-55 -64q-16 -27 -8 -41q14 -31 73 -60q49 -25 152 -33q74 -6 106.5 -18t61.5 -45q20 -23 25.5 -49.5t5.5 -114.5v-88l-2 -184l-17 -45q-72 -199 -184 -256q-41 -20 -82 -25.5t-141 -5.5 q-119 0 -158 8t-53 39q-8 14 -8 72z" />
<glyph horiz-adv-x="876" d="M70 618q0 158 8 197q16 92 82.5 183.5t146.5 107.5q29 4 35 10t82 6q100 0 155.5 -18.5t104.5 -67.5q102 -104 117 -231q4 -49 4 -121q0 -221 -12 -274q-25 -88 -86 -148q-43 -43 -56 -49q-61 -31 -94 -38t-137 -7q-113 0 -146 10q-70 20 -124 88t-72 154q-8 39 -8 198z M262 621l12 -23q27 -51 73 -93t75 -42q12 0 49 18q35 16 76 56.5t55 70.5l12 27l-24 39q-54 90 -111 125q-29 18 -57 14q-20 -2 -71.5 -60.5t-74.5 -103.5z" />
<glyph horiz-adv-x="897" d="M70 352v180q0 180 12 216q35 109 127 213t192 135q23 8 148 8q104 0 136 -4t63 -25v-143q0 -141 -11 -146q-18 -6 -86 -6h-76l-2 15q-4 18 -18 18q-29 0 -90 -43q-53 -35 -110.5 -101.5t-80.5 -117.5l27 -27q80 -80 207 -106q29 -4 45 -4q27 0 89.5 7t94.5 7l86 4v-285 q-123 -18 -274 -18q-172 0 -213 12q-41 10 -57 19q-14 8 -18.5 4t-43.5 20q-90 53 -131 133z" />
<glyph horiz-adv-x="808" d="M72 340l2 123l67 2q59 0 90 -5t115 -5q113 0 146 8q29 6 30.5 9t-12.5 20q-47 33 -160 38q-100 6 -147 25.5t-58 58.5q-4 12 -4 152q0 141 4 158q12 61 60 125q49 68 131 86q29 6 110.5 6t120.5 -6q80 -14 129 -50l19 -12v-256q-23 -4 -97 -4l-65 2q-2 14 -4 18.5t-7 8.5 t-20 12q-35 20 -59 20q-14 0 -39 -10q-18 -8 -44 -30.5t-26 -28.5q0 -10 129 -23q98 -8 143.5 -26.5t73.5 -63.5q29 -41 33 -70.5t4 -162.5v-160l-12 -23q-27 -47 -92.5 -63t-229.5 -16q-307 0 -325 14q-6 6 -6 129z" />
<glyph horiz-adv-x="579" d="M82 29h80q80 0 84 -4q10 -16 30 16q72 123 72 496q0 102 -6 182q-6 49 -6 201q0 121 4 133q4 10 86 10l80 -2l4 -96q2 -53 2 -476q0 -373 -10 -452q-31 -258 -86 -297q-12 -10 -84 -10h-78q-115 2 -130 4t-42 16v279zM309 1339q0 138 4 142q2 2 78 2h35q41 0 51 -13.5 t10 -72.5v-74l-2 -135l-77 -2q-78 0 -89 8q-10 10 -10 145z" />
<glyph horiz-adv-x="1019" d="M74 270v60v135h76q78 0 79 -10q6 -25 80 -25q86 0 213 33q72 18 137.5 57t90.5 80q6 8 4 14.5t-17 20.5q-31 31 -84 45q-10 4 -26 4q-20 0 -39 -4q-31 -6 -142 -6h-96v266l41 2q57 4 105 37q27 18 99.5 82.5t72.5 71.5q0 4 -170 55q-37 10 -62 10q-47 0 -94 -41 q-20 -18 -23 -51l-2 -35h-75q-78 0 -84 6q-6 4 -6 150v143l14 23q47 68 145 80q16 2 144 2q98 -2 143 -10.5t150 -43.5q141 -49 174 -78q20 -18 24 -41.5t4 -140.5v-141l-12 -25q-10 -20 -39 -53l-25 -29l17 -18q35 -37 47 -94q8 -41 8 -191q0 -147 -8 -188 q-37 -176 -330 -238q-127 -25 -313 -24q-156 0 -178 8q-16 6 -20.5 7t-11.5 6t-8 16.5t-2 27t-1 45.5z" />
<glyph horiz-adv-x="321" d="M70 246v147h166l2 -143v-150q0 -4 -84 -4h-82zM80 866v133v45q0 100 6 125h78q78 0 84 -10q6 -8 6 -174q0 -98 -4 -111q-2 -8 -86 -8h-84z" />
<glyph horiz-adv-x="419" d="M68 1432q0 100 4 104q2 2 82 2h79l3 -68q10 -213 16 -604q2 -317 9 -374.5t46 -106.5l35 -45v-281h-160l-26 35q-8 10 -20.5 28.5t-14.5 20.5q-18 27 -24.5 98.5t-8.5 374.5q-4 354 -12 517q-8 156 -8 299z" />
<glyph horiz-adv-x="1349" d="M74 1143v291h155q59 -174 109 -418q47 -227 57 -277l13 -47l12 58q8 35 41 145q115 403 121 514l2 23h82l82 2l10 -37q10 -33 63 -254q33 -133 80 -275q66 -197 66 -215h2q6 6 56 262t60 336q23 160 29 197h162v-135q0 -139 -21 -277q-25 -176 -104 -571 q-49 -240 -86 -328l-6 -20h-80q-84 0 -88 4q-33 43 -74 215q-6 33 -62.5 209t-68.5 225q-8 33 -12 35q-2 0 -4 -8q0 -4 -6.5 -22.5t-16.5 -56.5t-18 -65q-39 -139 -76 -305q-43 -203 -68 -221q-10 -6 -86 -6h-77v12q0 12 -9 12q-10 2 -41 148q-10 47 -38.5 176t-38.5 178 q-55 281 -105 440z" />
<glyph horiz-adv-x="921" d="M74 1409q0 164 4 168q2 2 82 2l78 -2l4 -66q4 -63 22.5 -239t20.5 -191l4 -39q31 31 52 37t118 8h37q102 0 148 -11t83 -46q88 -82 111 -354q12 -131 12 -365q0 -82 -2 -112l-4 -95h-166l-2 175q-2 223 -33 335q-33 123 -113 166q-25 12 -38 13q-16 0 -35 -19 q-57 -57 -101.5 -232t-44.5 -352v-79h-159q-8 31 -14.5 302t-8.5 289q-18 283 -51 512q-4 20 -4 195z" />
<glyph horiz-adv-x="325" d="M66 1276v88q0 113 2 115q2 8 79.5 8t83.5 -6q4 -4 11 -459q8 -473 10 -512q6 -98 6 -201v-141h-82q-78 0 -82 4q-14 20 -20 541q-2 281 -8 563z" />
<glyph horiz-adv-x="1044" d="M68 1255q0 178 4 224l2 24l51 2q45 2 297 2q233 0 246 -2q59 -10 119.5 -62t95.5 -122q51 -106 80 -287q10 -63 10 -299q0 -242 -12 -284q-20 -80 -80 -152q-25 -31 -75 -78t-77 -63l-27 -17l-292 2q-293 2 -299 11q-12 16 -15.5 60t-3.5 212q0 262 -6 352q-2 23 -5 76 t-6 96t-3 72q-4 115 -4 233zM238 1196l4 -39q4 -47 20 -395q8 -156 8 -238v-94l152 2l149 4l23 19q170 127 203 262q4 16 4 31q0 47 -27 147q-27 106 -69 184q-18 33 -57.5 70t-72.5 53l-34 21h-271v-15q0 -12 -16 -12h-16z" />
<glyph horiz-adv-x="1067" d="M72 1323q0 147 4 156l6 14q27 -2 80 -2t80 -2l2 -111q14 -455 135 -714q29 -63 72 -120t75 -73q12 -6 17.5 -4t27.5 18q152 113 213 408q35 178 35 311q0 18 -2 19q-4 0 -4 139v139h172l4 -18q4 -12 4 -195q0 -203 -4 -256q-16 -240 -24 -299q-18 -125 -35 -186 q-76 -252 -207 -346q-33 -23 -57.5 -30t-83.5 -7h-52q-111 2 -141 16q-23 10 -59.5 44t-53.5 59q-51 74 -86 166q-41 117 -74.5 309t-35.5 346q0 68 -4 72t-4 147z" />
<glyph horiz-adv-x="739" d="M74 788v142l2 141l65 2q16 0 34 1t26 3h10q6 0 27 271q8 80 21 108.5t48 38.5q10 2 111 2q88 0 123 -10q82 -25 121 -49q4 -4 4 -144l-2 -137q-25 -2 -76 -2t-76 -2l-41 18q-41 18 -45 19q-16 0 -20 -78l-5 -39h33q90 0 168 -18l39 -8v-283l-82 2q-43 0 -168 16 q0 -53 6 -262t6 -289q0 -92 -6 -100h-82l-82 2l-4 195q-4 162 -8 288q0 20 -2 50t-3 51.5t-1 32.5v38h-141z" />
<glyph horiz-adv-x="808" d="M70 793v98q0 213 20 307q51 260 182 301q12 4 127 4q109 -2 125.5 -9t16.5 -52q0 -43 12 -51q92 -59 135 -152q33 -68 42 -140.5t9 -256.5q0 -240 -26 -346q-53 -199 -203 -275l-33 -18h-110q-18 0 -42 -1t-30 -1q-37 0 -64 10q-104 47 -147 295q-12 66 -14 287z M240 843.5q0 -16.5 6 -61.5q31 -186 92 -254l24 -24l23 12q121 72 166 256l16 62l-8 38q-35 144 -158 236q-37 29 -49 33l-20 8l-13 -19q-47 -72 -73 -231q-6 -39 -6 -55.5z" />
<glyph horiz-adv-x="634" d="M74 815v135q0 137 4 141.5t88 8.5l80 6v90q0 164 16 184q4 6 82 6l78 -2v-139l2 -141l65 -2q14 0 32 -2l27 -3t11 -1q6 -2 6 -142v-139h-157v-113v-143q0 -78 10 -90q20 -20 104 -35l33 -6v-278h-86q-115 0 -186 26q-27 8 -35 27q-10 20 -10 311v291h-68q-74 0 -96 10z " />
<glyph horiz-adv-x="770" d="M70 381v102q2 221 10 262q66 365 287 385q31 4 98 5q143 0 205 -19l28 -8q-2 -45 -2 -138t-2 -141l-84 2q-76 0 -108 9q-23 8 -60 -11q-66 -33 -108.5 -96t-73.5 -178l-16 -61q2 -55 2 -166t2 -166h-172l-4 53q-2 20 -2 166z" />
<glyph horiz-adv-x="917" d="M66 274q0 193 4 193q14 0 14 518q0 471 4 475q6 6 47 10q23 2 201 3q162 -2 223 -13q215 -37 270 -137l15 -29l2 -164v-67q0 -135 -29 -195q-43 -90 -108 -159l-23 -25h-65q-51 0 -220 -4l-151 -2v-189q0 -188 -19 -331h-79h-46q-37 0 -38 10q-2 6 -2 106zM248 1104 q0 -61 4 -103l2 -38h45q2 0 145 10l105 8l14 18q63 82 64 95q0 23 -105 59q-117 37 -209 37q-18 0 -24 -2q-6 0 -12.5 -11.5t-14.5 -11.5h-14v-61z" />
<glyph horiz-adv-x="1308" d="M74 836v249l73 -2q76 -6 80 -12q59 -119 195 -479q20 -57 27 -57q8 4 41.5 112.5t54.5 190.5q45 188 53 196q6 6 74 6q61 0 73.5 -8t28.5 -57q10 -31 49 -199t49 -203q4 -8 7 -2l2 9q0 4 7 23.5t20.5 61.5t21.5 70q61 199 112 324l31 74q0 2 10 22l9 23q23 -2 71.5 -2 t71.5 -2l2 -121v-70q0 -55 -10 -78q-2 -6 -5 -12l-5 -10l-3 -4q0 -10 -45 -111q-35 -80 -61 -168q-8 -33 -20.5 -68.5t-18.5 -58.5q-55 -186 -80 -235q-16 -35 -32.5 -41.5t-84.5 -6.5q-70 0 -84 11q-25 20 -45 78q-12 35 -37.5 133t-25.5 116q0 20 -10 -8q-2 -10 -6 -24 q-47 -164 -74 -222q-2 -6 -15.5 -33.5t-24.5 -51t-18 -31.5l-14 -23h-156l-16 35l-16 37q0 12 -97.5 255t-128.5 308z" />
<glyph horiz-adv-x="714" d="M66 973q0 500 4 502q6 6 6 18v14h153q102 0 283 -10l129 -8l2 -146v-147l-27 4q-156 12 -309 19l-69 4v-17q0 -14 -5 -14q-6 0 -6 -102v-103q2 -2 8.5 -5t7.5 -4t6 -4t6 -3t6 -1t9 -1t11.5 -1t14.5 -1h19h88q141 0 150 -4q10 -4 10 -145.5t-8 -143.5q-6 -2 -74 -2 q-86 0 -86 4t-84 4h-84v-14q0 -14 8.5 -64.5t8.5 -73.5v-43h157q156 0 193 -4l35 -4v-299h-37q-25 0 -55 6q-57 16 -140 17q-37 0 -113.5 -4t-115.5 -4h-96l-2 126q-4 102 -4 654z" />
<glyph horiz-adv-x="870" d="M70 1346v129l24 12q27 12 295 22q147 4 264 4q92 0 109 -2l33 -2v-139l-2 -141l-230 -2q-291 -2 -305 -17q2 -35 4 -75q6 -123 6 -138l2 -65h17q12 0 69 8q78 10 240 10q70 0 82 -2v-143l-2 -143l-109 -5q-225 -4 -233 -24q0 -4 -33 -4h-31l-2 -244q0 -244 -4 -248 q-6 -6 -80 -6q-80 0 -82 10q-2 6 -2 353v202q0 209 -20 420q-10 117 -10 230z" />
<glyph horiz-adv-x="923" d="M70 643q0 190 20 266q37 148 133 181q27 10 166 10q147 0 199 -10q78 -12 119 -33t69 -60q27 -39 32 -71.5t5 -184.5q0 -184 -2 -190q-4 -16 -56.5 -22.5t-248.5 -8.5l-236 -2l19 -24q41 -57 174 -101q39 -12 209 -14l176 -2l2 -137q0 -137 -4 -141.5t-221 -4.5h-123 q-133 0 -215 27q-88 27 -129 64.5t-60 105.5q-29 109 -28 352z" />
<glyph horiz-adv-x="913" d="M82 -68h86l84 -2l27 35q45 61 98 187l10 26l-39 107q-72 190 -106 268q-100 221 -111 221q-14 0 -14 172v133h168l41 -86q113 -229 188 -444q10 -25 14 -25q10 10 56 166q23 76 59 248q20 82 25 94l10 33l47 4q53 4 82 4l33 -2l2 -141q0 -141 -4 -146q-6 -6 -35 -129 q-47 -207 -89 -338t-120 -301q-2 -6 -6 -15t-16.5 -40t-26.5 -63q-49 -119 -85 -179.5t-85 -97.5q-31 -25 -51.5 -29t-100.5 -4q-78 0 -97.5 6.5t-33.5 36.5q-10 20 -10 162v139z" />
<glyph horiz-adv-x="919" d="M68 1128h77q74 0 80 -6q2 -2 6 -67l2 -62l17 21q47 55 94 78l31 14h256l28 -14q70 -33 109 -94.5t61 -182.5q10 -49 15 -108q4 -41 4 -228q0 -193 -4 -241l-6 -84h-152q-4 14 -4 71v117q0 27 1 62.5t1 46.5q0 66 -8 104q-27 154 -92 221q-43 43 -74 51h-6 q-25 0 -66 -38.5t-76 -96.5q-104 -172 -116 -379q-4 -104 -6 -114l-4 -35h-154l2 235q0 6 -14 576z" />
<glyph horiz-adv-x="309" d="M68 158q0 186 8 243h162v-149q0 -150 -5 -158q-2 -8 -79 -8q-76 0 -82 6q-4 8 -4 66z" />
<glyph horiz-adv-x="727" d="M70 784v123q2 242 14 305q57 310 209 330q25 4 119 4q123 0 196 -37q23 -10 28 -13t12 -19.5t7 -37v-71.5v-35q0 -141 -4 -149q-2 -8 -86 -8q-61 0 -72.5 2t-15.5 10q-4 10 -32.5 25.5t-41.5 15.5q-10 0 -37.5 -27.5t-39.5 -52.5q-31 -55 -52.5 -137t-21.5 -140v-18 q12 -119 57 -218t115 -149q16 -12 27 -12q18 0 26 53l2 21q29 0 84 -2t84 -2v-164q0 -143 -6 -171t-43 -44q-25 -10 -72 -10h-75h-119l-41 22q-152 78 -201 328q-20 102 -20 278z" />
<glyph horiz-adv-x="321" d="M68 879q0 159 2 165q4 8 82 9l81 -2l3 -234q2 -66 4 -237.5t2 -237.5l4 -242h-80q-82 0 -86 4q-12 8 -12 775zM82 1186v137q0 139 4 147q2 8 86 9l80 -2l2 -136q0 -137 -4 -145q-6 -10 -86 -10h-82z" />
<glyph horiz-adv-x="1019" d="M74 1434q0 59 2 69l4 25l84 -2h82l4 -68q2 -47 9 -113.5t9 -83t7.5 -62.5t8.5 -86t3 -62v-31l217 -2h215l-2 26l-12 68q-18 102 -19 238v45l2 125l86 2h86l4 -37q2 -23 33 -232q35 -248 47 -913l4 -164h-80q-76 0 -84 4q-6 2 -10 14.5t-6 31t-4 24.5q-8 31 -8 248v219 l-144 2h-223l-82 -2l4 -123q2 -70 8.5 -140.5t6.5 -174.5v-144h-170l-6 21q-6 16 -13 200q-10 348 -51 719q-12 119 -12 359z" />
<glyph horiz-adv-x="1038" d="M72 600v139l2 142l20 4q20 6 166 10q150 4 154 6q8 2 6 29q-2 16 -2 176q0 154 2 158q4 4 82 4q84 0 88 -11q4 -6 4 -94q0 -211 8 -243q2 -8 180 -9h181v-139l2 -141l-154 -2q-145 -4 -178 -8l-27 -3l2 -145q0 -145 -4 -178h-168v321l-51 -4q-168 -12 -225 -12h-88z" />
<glyph horiz-adv-x="428" d="M78 127l22 70q33 104 76 194l14 29q29 -2 83.5 -2t80.5 -2l2 -140q0 -141 -4 -141q-6 0 -19.5 -27.5t-31.5 -76.5t-37 -105l-20 -65h-166v266zM160 922v135q0 137 2 139q4 4 86 4h84v-278h-172z" />
<glyph horiz-adv-x="772" d="M70 1006q0 182 4 204q12 94 83.5 183t149.5 112q10 4 111 4q98 0 100 -4q6 -6 76 -6h74l10 -22q18 -41 21 -106.5t6 -379.5v-383q0 -481 -9 -487q-4 -4 -88 -4h-80v180q0 164 4 324l5 145q-35 -23 -52 -31l-28 -14l-131 -2h-129l-31 12q-57 27 -84 82q-10 23 -12 193z M270 1047l19 -17q23 -18 26 -18q16 0 58.5 30.5t68.5 61.5q20 23 44 61.5t24 46.5q0 2 -37 2q-39 0 -59 -10q-23 -10 -65 -52t-60 -73z" />
<glyph horiz-adv-x="1077" d="M74 1143v274h162l26 -28q33 -37 84 -113q29 -41 107.5 -153.5t95.5 -137.5l41 57q188 266 219 330q10 25 22 37q10 10 91 10h77l2 -137v-135l-14 -21q-16 -20 -16 -26q0 -10 -25 -41q-111 -166 -211 -309l-24 -39l32 -52q14 -20 49 -76.5t60 -91t53 -69.5l35 -41v-277 h-160l-16 23q-8 12 -33 37q-33 33 -82 117q-100 164 -108 163q-4 0 -23 -28q-27 -43 -57 -82q-88 -115 -121 -182l-18 -35l-76 -4q-10 0 -30.5 -1t-27.5 -1l-24 2q-4 4 -4 139v137l14 29q27 55 123 186q10 14 25.5 36t25.5 35t14 19l17 25l-12 18q-20 33 -93 135.5 t-90 128.5q-57 86 -80 109z" />
<glyph horiz-adv-x="880" d="M70 930q0 190 10 267t45 146q25 49 79 93.5t111 62.5q12 4 123 4l109 2l31 -16q57 -31 122 -123q39 -55 60 -117q14 -40 16 -198q0 -158 -8 -199h-176l-2 80q-2 76 -21 108q-27 51 -75 106.5t-64 55.5h-2q-49 -18 -100 -74q-35 -37 -60.5 -102t-25.5 -115q0 -55 28 -180 q35 -147 82 -221l25 -35l22 12l23 11v82l2 79l74 3h43q53 0 53 -11q0 -6 53 -59q23 -23 80 -87.5t76 -82.5q4 -4 4 -143v-140h-166l-37 47q-39 49 -39 37q0 -10 -39 -33l-37 -22l-110 -2h-111l-22 12q-104 61 -154 361q-23 143 -22 391z" />
<glyph horiz-adv-x="1087" d="M74 1204v277h159l48 -35q150 -125 268 -338q31 -53 33 -53l4 8q6 8 17 26.5t20 32.5q4 8 41.5 68.5t56.5 91.5q119 188 119 215v14h80q80 0 86 -6t6 -141v-137l-31 -51q-78 -139 -233 -388q-70 -113 -86 -112q-4 0 -5 -260v-258h-168v153q0 154 -10 230q-10 74 -14 118 q-2 31 -7 44.5t-30 58.5q-10 18 -33.5 57t-29.5 51q-59 102 -129 187.5t-115 107.5q-12 4 -47 39z" />
<glyph horiz-adv-x="884" d="M66 1397l2 53q4 4 82 4h79l4 -45q2 -25 7 -215l2 -170l20 8q23 8 137 8q113 0 187 -14q98 -20 124.5 -29.5t47.5 -29.5q29 -29 45 -107q10 -49 10 -227q0 -184 -10 -225q-43 -174 -208 -246t-437 -72h-78l-6 47q-6 55 -6 371q0 102 1 267t1 188q0 209 -2 307 q0 27 -1 69.5t-1 57.5zM233 551q0 -150 5 -158q2 -8 41 -2q109 18 200.5 73.5t130.5 133.5q14 33 15 41q0 16 -23 43q-26 33 -104 49q-59 14 -82 14t-64 -20q-33 -16 -71.5 -16t-42.5 -4q-4 -8 -5 -154z" />
<glyph horiz-adv-x="1439" d="M70 897q0 127 8 141q6 10 17 11.5t69 1.5h78l2 -33q4 -37 4 -55v-25l20 31q72 106 146 133q27 10 125 10q84 0 112.5 -5t59.5 -28q59 -41 98 -114l16 -33l13 24q31 59 61 74q23 10 98 10q182 0 255 -56t102 -214q12 -86 12 -442v-78v-90h-160v153q0 164 -6 197 q-27 180 -125 225q-29 14 -41 14.5t-26 -22.5q-31 -47 -66 -149q-51 -152 -84 -365q-2 -12 -4 -26.5t-4 -22.5t-2 -10q-2 -8 -82 -9l-76 2l-4 13q-4 25 -4 141q0 152 6 188q8 57 8 72q0 29 -10 66q-33 123 -121 186q-23 16 -39 8q-12 -6 -42.5 -35.5t-43.5 -46.5 q-47 -63 -90 -172q-70 -178 -82 -405l-2 -66l-78 2h-77l-5 62q-2 33 -8 275.5t-8 275.5q-2 55 -12 55q-8 0 -8 131z" />
<glyph horiz-adv-x="813" d="M68 94v279l26 35q20 27 68.5 102.5t64.5 99.5q139 168 140 195q0 6 -62 6q-14 0 -65.5 -1t-77.5 -1l-86 -2q-2 47 -2 140t-2 140l49 5q61 6 160 6q207 0 321 -19q94 -14 131 -14q8 -2 8 -139v-138l-28 -28q-18 -18 -113 -148q-14 -18 -55 -72.5t-70 -91t-29 -41t72 -4.5 q23 0 74 1.5t67 1.5l62 -3v-139l-2 -141l-139 -4q-94 -2 -193.5 -13.5t-200.5 -11.5h-118z" />
<glyph horiz-adv-x="638" d="M70 834q0 104 4 108t125 4q332 0 368 -6v-278l-243 -3q-94 -2 -220 -2h-28q-6 2 -6 177z" />
<glyph horiz-adv-x="1003" d="M66 1341q2 100 3 119t9 19q12 0 33 14q32 19 69 25q41 8 115 8h76q143 0 188 -13q141 -39 201 -114q23 -31 29 -62.5t6 -132.5v-71q-2 -147 -7.5 -188.5t-37.5 -141.5l-17 -49l25 -43q2 -4 18.5 -38t35.5 -72t36 -71q63 -131 74 -141q6 -4 6 -143v-140h-168l-39 82 q-80 168 -143 281q-117 215 -117 231q0 4 -37 5q-20 0 -51 -2.5t-54.5 -3.5t-25.5 -1l-39 -4l-6 -196q-6 -160 -6 -265l2 -69h-164v194q0 84 2 218.5t2 193.5q0 168 -14 363q-4 82 -4 208zM244 1145q0 -6 1 -26.5t1 -37.5l4 -94q70 0 151 2q152 6 158 12q12 12 41 113 q2 10 -25 35q-82 68 -178 84q-8 2 -19 5t-13 3h-3q-41 0 -86 -20q-18 -8 -18 -25q0 -12 -8 -16q-6 -4 -6 -35z" />
<glyph horiz-adv-x="970" d="M68 735v135q0 133 4 183q23 195 24 295l4 94q5 6 23 10q88 16 149 16h52q199 -4 452 -20l41 -4v-279q-10 -2 -57 -2q-80 0 -336 13q-86 4 -90 4q-23 0 -39 -4q-25 -8 -29 -9q-6 0 -6 -45q0 -10 -1 -22.5t-1 -19.5v-9q0 -6 172 -8q168 0 217 -12q166 -43 230 -160l14 -27 q2 -59 2 -179t2 -179l-14 -43q-16 -57 -61.5 -136t-78.5 -110q-39 -37 -67.5 -43t-153.5 -8h-76q-74 0 -196 27q-82 14 -90 14q-45 4 -54.5 15t-9.5 73v80l2 139l76 2h43q37 0 47 -10q12 -12 57 -19q18 -2 103 -18q72 -14 84 -14q23 0 49 18q49 33 107 131q23 41 22.5 51.5 t-33.5 40.5q-98 84 -235 84q-14 0 -43 -4q-92 -12 -113 -45q-8 -12 -86 -12q-82 0 -82 8t-12 8h-12z" />
<glyph horiz-adv-x="1220" d="M72 143v271l18 45q35 86 88 198q119 260 193 457q80 207 125 311q20 47 45 86h157l11 -20q20 -39 47 -86q82 -139 135 -268q20 -49 78 -224q84 -256 145 -374l33 -62l-2 -141v-139l-78 -2q-80 0 -88 6q-10 6 -10 20q0 10 -27 68q-41 82 -94 233l-29 84l-33 6q-12 2 -47 2 q-33 0 -110.5 -5t-108.5 -5h-82l-28 -67q-25 -55 -84.5 -185.5t-67.5 -148.5l-22 -58l-82 -2h-82zM555 905q0 -6 76 -6q80 0 80 6q0 4 -42 87t-44 85q-4 4 -19 -39q-2 -6 -16.5 -33.5t-24.5 -54t-10 -45.5z" />
<glyph horiz-adv-x="962" d="M68 152v155l2 125l16 21q59 74 127 147l45 49q-27 29 -72 79t-66.5 69.5t-35.5 25.5v283h166l43 -45q37 -37 102 -111q59 -68 65.5 -67.5t59.5 69.5q66 82 101 119l49 49h82l79 -2v-14v-22.5t-1 -53.5t-1 -63v-127l-18 -15q-14 -12 -61.5 -63t-71.5 -84l-16 -23l55 -53 q80 -74 125 -151q20 -37 35 -52q10 -10 10 -61v-68v-118l-96 -3h-97l-20 35q-41 74 -109 135q-29 25 -65 62l-39 37l-53 -56q-74 -78 -164 -184l-19 -24h-157z" />
<glyph horiz-adv-x="331" d="M70 1335q0 160 4 168l4 15h170l2 -140q14 -602 14 -616v-168l-2 -422h-166l-2 320q-6 420 -20 622q-4 45 -4 221z" />
<glyph horiz-adv-x="866" d="M70 526q0 207 8 248q47 242 192 311l33 17h127q123 0 152 -4l22 -4v82q0 70 4 200l2 119h160q10 -37 10 -270q0 -227 8 -310q4 -94 9 -421l2 -349l-183 -2h-172q-174 0 -225 15q-68 18 -97.5 45.5t-43.5 83.5q-8 35 -8 239zM250 537q0 -16 12 -35q18 -31 78 -56l35 -14 l119 2q121 0 120 6q0 4 8.5 4t8.5 39q0 37 -6 156l-7 139h-43q-25 0 -34 3t-9 6.5t-8 8.5t-28 9q-8 0 -18.5 2t-16.5 4t-8 2h-2q-33 0 -78 -41q-72 -61 -111 -184q-12 -37 -12 -51z" />
<glyph horiz-adv-x="344" d="M70 1309q0 153 2 159.5t82 6.5h79l3 -37q14 -162 32 -465q6 -117 6 -256l-2 -125l-79 -2h-78l-4 12q0 2 -2.5 19.5t-4.5 46t-2 53.5q-2 31 -13 192.5t-11 208.5q0 27 -6 33q-2 2 -2 154zM78 315q0 136 4 140t59 4q94 0 107 -6l12 -7v-137l-2 -139h-80q-78 0 -90 4 q-10 4 -10 141z" />
<glyph horiz-adv-x="890" d="M66 330q0 137 8 141q6 4 6 61q0 98 -2 195q-4 156 -4 496q0 270 4 278l2 15h164l-2 -181q0 -25 -1 -63.5t-1 -50.5q0 -63 4 -105l35 43q104 133 229 260l86 86h166v-139q0 -139 -6 -143q-14 -8 -89 -84t-128 -138q-10 -12 10 -57q80 -172 149 -328q57 -131 78 -170.5 t35 -39.5q6 0 6 -144l-2 -143l-78 -2h-80l-14 16q-35 39 -76 137q-33 84 -119 271l-16 34q0 6 -18.5 44t-38 78t-21.5 42l-10 23q-10 -14 -55 -76l-37 -49l-2 -225q-2 -223 -8.5 -229.5t-84 -6.5t-83.5 8.5t-6 145.5z" />
<glyph horiz-adv-x="497" d="M74 43l20 49q43 107 131 289l39 82h162v-279l-31 -59q-86 -166 -86 -182q-6 -16 -14 -35q-25 -55 -37 -84l-22 -53q-27 0 -80.5 -2t-79.5 -2v139z" />
<glyph horiz-adv-x="892" d="M70 1040.5v27.5v22l2 8q2 8 84 8h82v-49q0 -104 51 -314q45 -199 112 -274l17 -20l24 12q27 14 63 51t52 66q82 147 100 458l2 56h164v-154v-86q0 -84 -10 -168q-27 -205 -56.5 -296t-90.5 -152q-39 -39 -88 -64l-46 -22l-108 -3q-115 0 -125 3q-47 8 -98 108 q-68 129 -117 414q-10 49 -12 239q0 27 -1 71t-1 58.5z" />
<glyph horiz-adv-x="892" d="M68 1468q0 10 1 20.5t1 16.5v8q2 10 36 11h48h43h14t11 -2t7 -3t5.5 -6.5t3.5 -9.5t1 -13t1 -16.5t1 -21.5t1 -27q14 -268 14 -442v-199l53 58q35 35 104.5 120t88.5 105l33 31h161v-142q0 -141 -6 -141q-4 0 -33.5 -30.5t-50.5 -57.5l-22 -29l14 -18q145 -188 184 -246 l35 -55v-279h-160l-26 43q-27 41 -58.5 83t-69.5 92.5t-63 82.5q-53 68 -59 68q-16 -6 -90 -100q-20 -25 -23 -25q-4 0 -4 -133v-131h-80h-47q-31 0 -37 10q-4 14 -8 449q-6 475 -12 563q-12 205 -12 366z" />
<glyph horiz-adv-x="1054" d="M70 508v231q0 223 12 277q25 92 61 170q96 195 230 287q69 47 147 63q53 8 160 8q74 0 90 -4q68 -12 113 -49v-141q0 -143 -9 -152q-8 -6 -86 -6h-75l-2 20q-2 10 -3 14.5t-6.5 8.5t-17.5 8q-27 10 -49 4q-51 -14 -111.5 -57t-101.5 -96l-14 -19l88 2h22 q211 0 324.5 -67.5t132.5 -235.5q6 -43 6 -164q0 -147 -8 -209q-12 -80 -56.5 -122.5t-134.5 -63.5q-43 -10 -190 -10q-143 0 -215 14q-76 16 -119 36.5t-86 66.5q-61 59 -88 143zM254 715q0 -6 21.5 -42t35.5 -52q51 -59 119 -91q84 -39 164 -38h6q123 10 176 88l17 22 l-17 31q-27 55 -74 86.5t-137 58.5q-35 10 -45 10q-14 0 -47 -16q-63 -33 -70 -49q0 -4 -75 -4q-74 0 -74 -4z" />
<glyph horiz-adv-x="917" d="M68 891q0 186 6 240.5t37 138.5q79 223 249 256q23 6 115 6q100 0 100 -21q0 -10 21 -16q45 -12 100 -78q111 -129 142 -356q8 -51 8 -240q0 -219 -10 -286q-43 -260 -177 -332q-25 -14 -129 -17h-34q-102 0 -160 29q-203 102 -258 399q-10 59 -10 277zM252 883 q0 -18 18.5 -76.5t36.5 -95.5q61 -127 174 -193q20 -10 27 -10q12 0 47 37q35 39 71 126t36 134t-33 138t-66 138q-47 70 -94 101q-25 16 -29 16q-14 0 -49 -35t-59 -71q-27 -41 -53.5 -112t-26.5 -97z" />
<glyph horiz-adv-x="1136" d="M72 399v138q0 137 10 153q23 31 119 137q100 111 231 303q106 160 201 269q35 41 47 59q6 10 86 10l80 -2v-139q0 -139 -6 -147q-8 -10 -9 -236l-2 -227l107 -4q113 -4 117 -6q8 -4 8 -144v-141q-39 0 -116 2t-116 2l-2 -143v-144q-29 0 -85 2t-85 2l-2 136v133l-32 -4 q-143 -16 -375 -17q-113 0 -142 4zM481 692h23q18 0 88 8.5t72 10.5v16v109l-2 122l-68 -102q-88 -129 -90 -133z" />
<glyph horiz-adv-x="847" d="M70 1520h69q133 0 133 -15q0 -8 78 -172q147 -311 217 -475l39 -90l4 109q0 14 1 41.5t1 42.5q0 66 -4 199.5t-4 201.5v135l80 2h78l8 -92q8 -109 8 -516q0 -184 -2 -234q-2 -31 -2 -77q0 -43 2 -45q4 -4 4 -144v-139h-45v-66h-162q-8 18 -17 45t-19 52q-33 80 -54 118 q-23 47 -43 100.5t-43 102.5q-111 262 -118 262q-2 0 -3 -313l3 -315h-168v211q0 285 -29 526q-8 65 -10 307z" />
<glyph horiz-adv-x="845" d="M70 530q0 145 8 203q49 281 170 346q66 35 215 35h51q113 -2 131.5 -7t22.5 -40h41q31 0 36 -1t9 -11q20 -51 20 -226q0 -229 -22 -323q-6 -25 -7 -223v-193h-75l-78 2v64l-2 63l-25 -14q-82 -43 -219 -43q-51 0 -100 6q-137 18 -168 166q-8 49 -8 196zM244 541l12 -19 q16 -31 46 -54.5t50 -23.5h6q72 23 131 84q55 55 86 144q16 49 19 98l2 51h-39q-39 0 -49 10.5t-16 10.5q-88 -6 -145.5 -70.5t-92.5 -198.5z" />
<glyph horiz-adv-x="643" d="M72 217v262h80h24h43t20.5 -9t26.5 -15l29 -13l24 13q47 27 67 99.5t28 240.5q4 94 4 135q0 14 -1 46t-1 48q-6 129 -6 373q0 106 2 108q6 6 77 6h78l4 -159q4 -213 4 -439q0 -336 -6 -415q-10 -154 -33.5 -221.5t-72.5 -92.5q-39 -20 -139 -20h-43q-86 2 -119 9t-72 32z " />
<glyph horiz-adv-x="1146" d="M70 864q0 156 8 238q29 199 164 336q82 84 188 100q27 4 133 4q225 0 297 -14q31 -6 33 -21v-8t1 -17.5t1 -23.5t-1 -45t-1 -53l-4 -135q-41 -6 -111 -6q-41 0 -58.5 2t-19.5 4t-15 6t-42 8q-41 4 -45 4q-14 0 -39 -6q-109 -31 -192 -135q-39 -47 -73 -120t-34 -110 q0 -49 59 -147q45 -78 134.5 -148.5t173.5 -99.5q29 -8 57 2q53 18 135 90q45 39 45 49q0 14 -55 15q-33 0 -35 -10.5t-82 -10.5q-82 0 -90 9q-10 10 -10 153v146l35 4q37 4 202 4q172 0 199 -8q33 -12 39 -18.5t8 -153.5q0 -23 1 -54.5t1 -40.5q0 -55 -8 -71 q-8 -18 -16.5 -87t-8.5 -118v-47l-32 -29q-131 -115 -215 -131q-25 -6 -101 -6q-164 0 -213 14q-70 18 -152.5 73.5t-123.5 104.5q-102 119 -129 279q-8 66 -8 229z" />
<glyph horiz-adv-x="899" d="M68 592v74q0 147 22 196q10 25 2 60q-10 41 -10 213q0 145 8 178q16 82 71.5 136.5t139.5 70.5q35 6 139 6q178 0 209 -10q23 -6 25 -29q2 -16 7 -21.5t34 -19.5q66 -31 96 -86l14 -27v-211q0 -213 -8 -229q-8 -18 2 -49q12 -37 12 -240v-209l-14 -41q-51 -147 -205 -200 q-35 -12 -161.5 -12.5t-163.5 14.5q-123 47 -181 159q-27 53 -31.5 92t-6.5 185zM281 596q14 -39 57 -78t90 -59l27 -13l24 11q88 35 142 125q12 20 2 34q-31 43 -103 76q-47 23 -94 25l-49 2l-29 -23q-27 -18 -51 -53q-23 -29 -16 -47zM303 1120q0 -6 6 -16q6 -14 41 -37 l33 -25h129l33 21q39 25 47 35l18 16q-25 27 -78 51.5t-112 26.5h-53l-27 -23q-37 -31 -37 -49z" />
<glyph horiz-adv-x="1198" d="M66 276q0 147 4 218q23 225 22 370q0 123 -16 293q-6 104 -6 234q0 82 4 86t80 4q59 0 74.5 -4t15.5 -18.5t20 -69.5q6 -14 14.5 -38t18.5 -55.5t16 -48.5q121 -340 189 -506q29 -68 33 -67q14 35 28 71q23 59 46.5 112.5t55 122.5t58.5 128q131 299 170 346h156 q6 -33 6 -102.5t10 -137.5q39 -256 51 -497q12 -233 12 -524q0 -12 -1 -24.5t-1 -18.5v-7q0 -6 -82 -6h-79l-4 99q-12 336 -48 622l-6 25q0 -2 -57 -125q-59 -125 -72 -158q-74 -164 -98 -240q-49 -141 -62 -170q-6 -24 -6 -28q0 -16 -24 -41l-76 2h-80l-2 72q-2 55 -8 76.5 t-45 105.5q-27 53 -94 235l-23 60l-2 -94q-2 -35 -11 -155t-9 -167q0 -49 -2 -59l-5 -21h-79q-82 0 -84 8q-2 4 -2 92z" />
<glyph horiz-adv-x="972" d="M82 -66v140h158l14 -31q33 -59 98 -92q33 -16 97.5 -36.5t80.5 -20.5h2q16 4 43 34.5t46 67.5q10 18 23 49t21.5 53.5t6.5 22.5q-8 -4 -19 -10q-29 -16 -53 -25q-35 -12 -166 -12q-123 0 -164 14q-76 29 -108 96l-17 35l-2 193v100q0 96 11 137q45 178 184 316 q68 68 143 86q31 6 137 6q150 0 213 -31v-35q0 -29 10.5 -54.5t20.5 -29.5t12 -28q4 -33 15 -72q10 -41 10 -154v-145q0 -354 -25 -500q-2 -18 -6 -36.5t-6 -28.5l-2 -11l-2 -6q-2 -6 -5 -16t-5 -21q-12 -45 -33 -96q-59 -145 -135 -182l-27 -12l-123 2q-106 2 -144 8 t-144 45q-76 27 -115 70q-33 39 -39 65.5t-6 144.5zM338 433.5q2 -5.5 18 -21.5q49 -49 82 -50q27 0 125 68q37 25 68 55q25 23 52.5 58t27.5 45q0 12 -20.5 54t-26.5 44q-8 2 -9 37l-2 37l-16 4q-2 0 -5 1t-5 1q-29 0 -74 -30.5t-86 -78.5q-92 -106 -127 -204 q-4 -14 -2 -19.5z" />
<glyph horiz-adv-x="909" d="M72 307q0 139 2 148q4 14 26 39q145 133 301 337q55 72 135 187t80 121t-36.5 30.5t-51.5 28.5q-55 20 -84 21q-6 0 -34 -5q-88 -18 -129 -59l-19 -18l-80 2h-78l-2 141v139q74 56 146 74q53 14 190 14q141 0 185 -10q164 -41 204 -162q10 -33 11 -188q0 -141 -7.5 -180 t-48.5 -105q-4 -8 -85 -121.5t-89 -124.5q-6 -4 -55 -69l-51 -68l96 -2q53 -2 170 -8l70 -4v-279l-193 2q-31 0 -73 1t-56 1q-86 0 -154 -8q-84 -8 -190 -8l-98 2z" />
<glyph horiz-adv-x="890" d="M72 811v285l78 2q80 0 88 -8q20 -18 80.5 -144.5t101.5 -234.5q29 -76 29 -84q0 -4 4 -4q2 0 19 35.5t38.5 86t34.5 82.5q69 184 102 252l17 31q27 0 78 -2t75 -2l2 -141v-140l-18 -43q-27 -59 -49 -114q-80 -205 -207 -484l-17 -41q-29 0 -87 -2t-87 -2l-8 21 q-8 20 -18 61q-53 199 -129 365q-82 184 -111 209z" />
<glyph horiz-adv-x="983" d="M74 1501h16q14 0 14 10q0 12 33 25.5t78 19.5q25 4 119 5q96 0 125 -5q96 -10 160.5 -46.5t82.5 -92.5q8 -25 9 -209v-184q86 -29 132 -93.5t60 -174.5q8 -82 8 -224q0 -135 -8 -241q-6 -80 -10 -94.5t-21 -14.5h-10h-26v-39l-158 -4q-86 -2 -186.5 -7t-200.5 -5h-125v90 q0 100 -21 297q-8 76 -20 209t-16 172q-31 258 -33 418zM266 1221q0 -20 2 -33q0 -6 4 -44t7 -59l6 -67l30 2q176 16 201 29q4 4 12 57q4 33 4 41q0 27 -34 59q-45 40 -117 56q-27 8 -39 8q-4 0 -29 -6q-29 -8 -38 -16.5t-9 -26.5zM315 698q4 -18 9 -77q0 -23 10 -101 t10 -100q0 -4 57 -4q39 0 256 8l70 2l6 49q2 18 2 41t-4 37q-38 145 -151 184q-23 6 -56 6q-61 0 -157 -20q-37 -8 -45.5 -8t-6.5 -17z" />
<glyph horiz-adv-x="1216" d="M76 1376v152l82 -2h84l20 -47q2 -6 78 -162q133 -274 254 -569q27 -59 33 -70l2 -2q6 0 49 100q55 129 143 369q102 283 142 336l14 20h164v-289l-35 -69q-41 -82 -127 -318q-82 -225 -217 -530q-47 -109 -51 -113q-6 -8 -18.5 -10t-74.5 -2h-83v14q0 37 -54 152 q-80 174 -116 266q-78 190 -123 281q-29 63 -87.5 178t-66.5 133q-12 37 -12 182z" />
<glyph horiz-adv-x="927" d="M70 991q0 103 4 107h35h204q246 -2 285 -11q98 -16 147 -55q68 -49 99 -180q12 -57 12 -272q0 -76 -4 -113q-14 -104 -100 -197q-76 -78 -136 -108q-47 -25 -69.5 -29t-104.5 -6h-53q-51 0 -78 12q-33 12 -37 12.5t-4 -40.5q0 -16 1 -51t2 -100.5t1 -133.5l5 -221h-162 l-4 30q-2 18 -6.5 103.5t-6.5 101.5q-4 33 -4 310v122q0 289 -18 461q-8 94 -8 258zM258 766q0 -23 2 -47q0 -8 6 -172l4 -109q31 0 90.5 -2t90.5 -2l24 15q102 59 166 159q16 27 17 30t-3 19q-57 141 -249 150h-44q-68 0 -77 -14q-8 -12 -19 -13q-8 0 -8 -14z" />
<glyph horiz-adv-x="1071" d="M70 545q0 188 12 239q41 156 137 256q65 68 137 80q12 2 95 2q182 0 206 -6q23 -6 27 2q4 6 84 6h78l4 -131q4 -147 4 -536q0 -408 4 -424l6 -23h125v-276l-26 -29q-80 -80 -80 -96q0 -4 -97 -4h-96v563l-41 -4q-35 -4 -69 -8q-18 -4 -109 -4q-143 0 -197 8 q-143 31 -192 164q-12 33 -12 221zM258 559l16 -24q43 -63 134 -91q20 -6 36 -6q2 0 39 4q59 8 129 13l80 2l-4 147q-4 162 -6 178l-2 29h-68q-68 0 -67 4q-1 6 -19 14q-27 10 -55 0q-57 -20 -113.5 -87.5t-87.5 -151.5z" />
<glyph horiz-adv-x="835" d="M74 1225v293l24 12q47 25 117 35q37 4 170 4q139 -2 197.5 -15.5t103.5 -56.5q53 -47 68 -117q8 -49 8 -188q0 -137 -8 -195q-14 -72 -56.5 -141.5t-138.5 -183.5q-31 -39 -90 -107l-25 -28h-174v290l31 33q102 106 180 213q25 31 47 72l21 35l-27 24q-63 59 -151 60 q-51 0 -97 -23q-33 -16 -116 -16h-84zM276 160v147q1 148 5 152q2 2 86 2h82q2 -49 2 -149.5t2 -151.5h-177z" />
<glyph horiz-adv-x="1048" d="M70 1319v135h161q176 0 412 16q29 2 121 3q176 0 194 -7l15 -6v-276l-31 -19q-45 -29 -139 -153q-16 -20 -67.5 -88t-80.5 -109q-12 -16 -60 -77.5t-88 -115t-58 -79.5q-6 -8 -21.5 -27.5t-25 -34t-9.5 -20.5l2 -4l21 -2q20 0 58 -1t73 -1q25 0 59.5 -1t44.5 -1 q45 0 49 4q4 6 80 6q78 0 84 -6t6 -143.5t-8 -141.5q-25 -8 -178 -8q-119 0 -229 6q-188 8 -277 8h-104v143q0 139 10 154q12 12 49 86q106 207 344 508l80 107l-158 2q-160 0 -163 -5q-6 -6 -82 -6q-80 0 -82 9q-2 4 -2 145z" />
<glyph horiz-adv-x="843" d="M66 236q0 98 2 194q4 158 4 311q0 180 -4 385q0 51 -1 134t-1 112l2 107q2 4 88 4l84 -2l2 -142q0 -98 -2 -205.5t-2 -312.5v-372q61 16 323 16q186 0 201 -10q8 -6 8 -144l-2 -137l-66 -2q-39 0 -87 3t-72 3q-37 0 -60 -2q-90 -8 -329 -8q-78 0 -82 4q-6 6 -6 64z" />
<glyph horiz-adv-x="956" d="M74 1184v141q0 139 8 141q8 4 74 4q63 0 236 8.5t204 10.5q109 2 117 12q6 8 86 8l78 -2l2 -123v-79q0 -98 -12.5 -98.5t-65.5 -69.5q-74 -96 -150 -303q-14 -41 -28.5 -77t-19.5 -52.5t-9 -24.5q-8 -16 -8 -18q0 -4 -11 -25q-2 -6 -6 -16.5t-12 -28t-12 -27.5 q-6 -12 -96 -221q-59 -133 -60 -149q0 -8 -10 -19q-8 -10 -86 -10h-78v287l35 75q152 348 223 537q39 111 53 133l-30 -4q-18 -2 -226 -6z" />
<glyph horiz-adv-x="997" d="M74 1204v142q0 141 6 147t104 6q104 0 244 -8q41 -4 92 -4q47 0 76 4q68 6 240 6q74 0 77 -2q8 -2 8.5 -141.5t-8.5 -141.5q-8 -4 -61 -4q-92 0 -143 -2l-93 -4l2 -368q4 -449 7 -512l2 -142h-166l-4 25q-6 36 -6 407q0 395 -15 592h-362z" />
<glyph horiz-adv-x="600" d="M70 823q0 238 8 283q59 322 229 510l41 45h166v-275l-41 -43q-164 -176 -223 -469q-6 -35 -6 -45t6 -45q16 -80 61 -176q61 -135 172 -248l41 -43v-278h-162l-38 43q-8 8 -25.5 27.5t-25 27.5t-20.5 24.5t-21.5 28t-20.5 30t-23 36.5q-74 125 -106 281q-12 61 -12 286z " />
<glyph horiz-adv-x="1036" d="M70 993v64q0 139 26 194q39 82 121 136.5t164 54.5h29v78q0 77 2 79q4 4 81.5 4.5t79.5 -8.5q2 -4 2 -67q0 -66 4.5 -79t28.5 -17q104 -25 174 -62l25 -12v-289l-82 -2h-51q-31 0 -31 8q0 10 -18 19q-23 10 -26 7t-1 -30q4 -33 4 -51v-19l37 -6q229 -35 305 -178l14 -29 l3 -161q0 -27 1 -62t1 -45q0 -55 -11 -80q-16 -39 -76.5 -63.5t-191.5 -46.5l-68 -13v-256h-161v238l-37 -8q-25 -4 -63 -8t-62 -11q-29 -6 -125 -6h-86l-2 140q0 135 6 139q2 0 11 2t25.5 4t31.5 4q16 2 78.5 12.5t120 18.5t79.5 8h14l-4 61q-4 63 -6 66q0 4 -73.5 9 t-161.5 31.5t-117 78.5q-12 25 -14 153zM313 1057q0 -8 111 -33v37q0 35 -8 76l-29 -21q-74 -47 -74 -59zM616 625l31 8q37 10 37 12q0 6 -29.5 20.5t-34 14.5t-4.5 -27v-28z" />
<glyph horiz-adv-x="1320" d="M74 602l2 137l131 2q131 4 133 6.5t17.5 62.5t15.5 67q0 4 -123 4h-123v278l149 2q152 4 154 6q4 4 27 117q41 200 53 229q4 8 86 9h80v-144q0 -141 -6 -149q-4 -6 -12.5 -32t-6.5 -28q45 0 97 2q92 2 94 13q2 8 14 92q8 49 35 197l4 24h80q80 0 84 -4q2 -4 2 -152 q0 -143 -8 -157q-4 -8 -4 -10q0 -8 63 -15q10 0 30.5 -2t37 -3t26.5 -1l41 -4l2 -137v-140q-43 0 -127 2.5t-125 2.5l-6 -37q-8 -41 -12 -82q119 -8 223 -25l43 -8v-279h-80q-39 0 -72.5 3.5t-69.5 8.5t-60 7l-41 4l-7 -33q-39 -193 -51 -205q-6 -6 -6 -32l-2 -29h-162 l-2 141q0 141 4 142q6 0 6 10q0 8 -11 9t-70 1q-82 0 -103 -4q-12 -2 -16 -7t-10 -30q-2 -10 -15.5 -58t-24 -93t-10.5 -60q0 -20 -8 -33q-10 -10 -37 -10q-4 0 -21.5 1t-29.5 1h-78l-2 139q0 100 -1 119t-9 19q-10 0 -10 -4q0 -6 -76 -7q-78 0 -88 11q-8 8 -8 145zM567 758 q47 0 101 2l98 2l12 57q10 52 10 64q0 6 -98 6h-98l-12 -66z" />
<glyph horiz-adv-x="835" d="M74 332v131l41 74q123 219 307 641q94 219 151 321l25 41h160v-141q0 -141 -4 -146q-14 -14 -82 -153q-16 -31 -113.5 -252t-101.5 -230q-90 -197 -197 -385q-14 -25 -14 -32q0 -10 -14.5 -12.5t-75.5 -2.5q-78 0 -80 9q-2 4 -2 137z" />
<glyph horiz-adv-x="845" d="M70 1012v280h43l41 2v125q0 125 4 129t78 4q63 0 81.5 -5t18.5 -23q0 -8 30.5 -60.5t35 -52.5t26.5 37q16 27 45 61l21 23h161v-127q0 -133 2 -139q2 -10 54 -17q53 -4 57 -8t4 -143v-140h-137v-114l-2 -115h-76h-37.5h-32.5l-14 2q-4 0 -33 51l-30 52q-8 -20 -27 -64 l-16 -35h-158v275l-70 2h-69z" />
<glyph horiz-adv-x="321" d="M70 1288q0 113 4 117t79.5 4t84.5 -12q14 -25 14 -400v-41l-2 -94h-162l-4 121q-2 117 -8 119q-6 4 -6 186z" />
<glyph horiz-adv-x="507" d="M72 723q0 160 10 195q12 37 14 110q2 61 8 78t29 35q29 23 94 22h54l88 -2l2 -139v-139l-29 -4q-35 -4 -41 -12.5t-6 -49.5v-47h141v-139q0 -139 -8 -144q-49 -18 -172 -18q-78 0 -105.5 5t-46.5 22q-23 20 -27.5 56t-4.5 171zM178 1374v142q27 0 82 -2.5t82 -2.5 q2 -47 2 -140t2 -140h-82l-84 2zM254 188q0 12 1 46.5t1 54.5l4 135h162v-285h-82q-82 0 -84 6q-2 16 -2 43z" />
<glyph horiz-adv-x="647" d="M70 1194v57q2 162 10 168q12 6 84 6h76l2 -98q2 -92 10 -119q10 -31 10 -149v-66v-90h-158q-35 72 -34 291zM358 1155v139q1 140 7 144h14h74q70 0 85 -6.5t21 -34.5q16 -61 16 -322v-33l-2 -106q-27 -2 -82 -2t-81 -2l-2 78q-4 104 -17 131q-8 14 -20 14h-13z" />
<glyph horiz-adv-x="1079" d="M70 891v133q0 133 4 137q20 2 51 2q209 0 438 -10q141 -6 168 -6q39 0 132 -9.5t122 -9.5l21 -2l2 -141v-141l-111 4q-61 2 -131 2q-31 0 -150 10q-239 21 -454 21q-70 0 -92 10zM125 621v133q4 2 10 7t6 6t7.5 3t8.5 2t12 1t18.5 1h25.5h23q84 0 86 -10q6 -18 335 -19 q268 0 301 -4l29 -4v-139l-2 -141l-82 -2q-12 0 -33.5 -1t-31.5 -1q-12 0 -26.5 1t-16.5 1q-47 6 -314 10q-346 4 -352 16q-4 8 -4 140z" />
<glyph horiz-adv-x="1593" d="M70 1081q0 59 8 90q16 61 52 112t75 63q18 6 119 6q94 0 108 -13q18 -12 66 -14q129 -6 149 -82q6 -20 6 -141q0 -160 -8 -205q-18 -72 -61 -115q-45 -47 -108.5 -65.5t-178.5 -18.5q-94 0 -132 12.5t-65 49.5q-18 27 -22 61.5t-6 159.5q0 25 -1 57.5t-1 42.5zM291 1016 q-10 -16 3 -20.5t32 1.5q57 17 57 29q0 2 -41 2t-51 -12zM422 381l22 31q113 158 455 831q118 233 145 268l15 19h166v-154l-2 -153q-29 -4 -43.5 -22.5t-63.5 -117.5q-201 -397 -274 -532q-201 -360 -232 -406q-16 -25 -16 -28q0 -6 -84 -6h-86v135zM967 483q0 127 5 174.5 t25 87.5q37 74 97 111q23 14 100 14h78v-34h41q41 0 73 -17q74 -37 113 -104l19 -29l2 -170v-88q0 -84 -11 -111q-33 -82 -131 -127q-27 -12 -157 -12q-137 0 -150 4q-51 16 -76 62q-18 31 -23 72.5t-5 166.5zM1169 498l17 -15q14 -14 26 -14q8 0 39 16.5t31 20.5 q0 6 -27 20q-35 20 -41 20.5t-24 -22.5z" />
<glyph horiz-adv-x="563" d="M72 223v139l18 27q4 8 78 113q72 102 102.5 170.5t42.5 152.5q4 20 4 47t-4 48q-29 186 -131 311q-53 66 -98 110q-8 8 -10 26.5t-2 121.5q0 135 4 139t80 4h77l15 -16q4 -4 11 -12.5t16.5 -18.5t15.5 -18q86 -96 129 -186.5t61 -219.5q10 -76 11 -289q0 -211 -11 -288 q-14 -113 -55 -200t-133 -208q-6 -6 -33 -51l-29 -43h-77l-80 2z" />
</font>
</defs>
</svg>
